<svg xmlns="http://www.w3.org/2000/svg" id="Group_553" data-name="Group 553" width="60.355" height="57.613" viewBox="0 0 60.355 57.613"><path id="Path_4404" data-name="Path 4404" d="M30.272.065C47.579,5.231,61.528,30.028,61.528,30.028S48.1,57.926,27.173,56.634-.725,42.685,1.6,26.67,12.966-5.1,30.272.065Z" transform="translate(-1.173 0.935)" fill="#e6e6e6"></path><g id="Crown_Hall" data-name="Crown Hall" transform="translate(10.997 12.771)"><path id="Path_117" data-name="Path 117" d="M27.49,14.406S29.3,8.914,33.11,5.815A2.174,2.174,0,0,0,30.638,6.84,1.292,1.292,0,0,0,28.546,6.8c-.757,1.192.794,1.521.794,1.521s.088,1.362-2.269,1.755c-2.165.07-2.78-2.418-2.129-2.707,0,0,1.615-.572.806-1.627a1.259,1.259,0,0,0-2.129,0,1.347,1.347,0,0,0,.259,1.432A2.926,2.926,0,0,1,21.14,8.728a2.293,2.293,0,0,1-2.357-1.873s2.2.608,2.448-1.5C21.11,3.64,19.267,3.9,19.267,3.9a4.2,4.2,0,0,0-.192-2.275A6.761,6.761,0,0,0,17.92,0S16.466,1.429,16.49,2.64a5.713,5.713,0,0,0,.122,1.454A1.61,1.61,0,0,0,14.675,5.4c-.435,1.67,1.694,1.94,2.2,1.478,0,0-.17,1.673-2.5,2.108-2.035.024-2.3-1.405-2.3-1.405a1.154,1.154,0,0,0-.56-1.937c-1.743-.3-1.67,2.494-.24,2.229A2.415,2.415,0,0,1,8.851,10.44c-1.84-.362-1.575-1.259-1.575-1.259s1.286-1.043.56-1.84S6.366,7.3,6.074,7.776c0,0-.146-1.235-1.864-.994,0,0,3.786,4.151,4.562,7.624Z" transform="translate(-2.93)" fill="#3c2517"></path><rect id="Rectangle_20" data-name="Rectangle 20" width="18.411" height="2.001" rx="1.001" transform="translate(5.827 15.163)" fill="#3c2517"></rect><path id="Path_118" data-name="Path 118" d="M3.181,65.775a4.051,4.051,0,0,1-.359.681.517.517,0,0,0-.116.262q0,.2.21.2a1.061,1.061,0,0,0,.538-.179,3.111,3.111,0,0,0,.608-.49,3.488,3.488,0,0,0,.706-1.031,2.737,2.737,0,0,0,.265-1.125,1.043,1.043,0,0,0-.3-.8,1.238,1.238,0,0,0-.876-.3,1.962,1.962,0,0,0-.5.073,3.537,3.537,0,0,0-.614.234,4.507,4.507,0,0,0-.608.353c-.113.073-.24.161-.377.268a4.491,4.491,0,0,0-.377.328,3.761,3.761,0,0,0-.3.353c-.094.119-.189.243-.277.374a5.32,5.32,0,0,0-.4.706,4.659,4.659,0,0,0-.274.721A2.372,2.372,0,0,0,0,67.034a1.825,1.825,0,0,0,.146.73,1.889,1.889,0,0,0,1.74,1.153,3,3,0,0,0,.852-.149,6.223,6.223,0,0,0,.979-.383,3.387,3.387,0,0,0,.748-.48,2.034,2.034,0,0,0,.386-.608,1.414,1.414,0,0,0,.131-.435h0a.122.122,0,0,0-.14-.14,1.317,1.317,0,0,0-.465.234A8.843,8.843,0,0,1,2.8,67.8a1.617,1.617,0,0,1-.55.122.362.362,0,0,1-.347-.158,1.216,1.216,0,0,1-.094-.584,4.011,4.011,0,0,1,.164-1.113,5.152,5.152,0,0,1,.459-1.131,4.848,4.848,0,0,1,.693-.964c.173-.173.3-.258.359-.258s.106.073.106.225a4.206,4.206,0,0,1-.128.879A6.834,6.834,0,0,1,3.181,65.775Z" transform="translate(0 -43.83)" fill="#3c2517"></path><path id="Path_119" data-name="Path 119" d="M19.716,66.786q.362-1.183.727-2.518a.979.979,0,0,1,.56.3.912.912,0,0,1,.173.59,1.8,1.8,0,0,1-.456,1.183,2.815,2.815,0,0,1-.3.262,1.467,1.467,0,0,1-.3.149.535.535,0,0,0-.189.094.2.2,0,0,0-.052.143.386.386,0,0,0,0,.1,3.278,3.278,0,0,0,.137.417,5.145,5.145,0,0,0,.219.487,4.863,4.863,0,0,0,.252.441,2.994,2.994,0,0,0,.274.371,1.8,1.8,0,0,0,.487.362,1.189,1.189,0,0,0,.5.152.785.785,0,0,0,.639-.353A1.882,1.882,0,0,0,22.6,68.6a3.477,3.477,0,0,0,.146-.529.472.472,0,0,1-.085-.036,3.616,3.616,0,0,1-1.1-.627,2.162,2.162,0,0,1-.207-.228,1.5,1.5,0,0,1-.143-.231,2.719,2.719,0,0,0,.493-.182,1.852,1.852,0,0,0,.359-.246,1.731,1.731,0,0,0,.45-.572,1.633,1.633,0,0,0,.158-.709,1.241,1.241,0,0,0-.182-.654,1.8,1.8,0,0,0-.508-.535,2.542,2.542,0,0,0-.785-.362,3.3,3.3,0,0,0-.94-.134,5.994,5.994,0,0,0-1.116.091,1.311,1.311,0,0,0-.626.231.517.517,0,0,0-.122.186.535.535,0,0,0-.055.21.186.186,0,0,0,.21.21,1.494,1.494,0,0,0,.234,0c.091-.018.179-.03.265-.04l-.116.3c-.167.429-.325.848-.471,1.256s-.286.824-.42,1.25-.234.769-.3,1.034a2.828,2.828,0,0,0-.1.56c0,.262.119.392.353.392a1.307,1.307,0,0,0,.5-.146,1.639,1.639,0,0,0,.465-.3,1.618,1.618,0,0,0,.319-.538,11.254,11.254,0,0,0,.374-1.143Z" transform="translate(-12.268 -44.229)" fill="#3c2517"></path><path id="Path_120" data-name="Path 120" d="M37.51,65.273a3.428,3.428,0,0,1,.3-.544,4.414,4.414,0,0,1,.429-.484,2.247,2.247,0,0,1,.4-.3,2.719,2.719,0,0,1,.5-.186,2.592,2.592,0,0,0,.453-.164,1.475,1.475,0,0,0,.328-.246.371.371,0,0,0,.1-.186c0-.1-.164-.149-.49-.149a3.041,3.041,0,0,0-.8.128,4.328,4.328,0,0,0-.873.35,3.671,3.671,0,0,0-.848.642,5.28,5.28,0,0,0-.727.894,4.738,4.738,0,0,0-.493,1.007,2.95,2.95,0,0,0-.179.979A1.749,1.749,0,0,0,36.1,68.3a2.089,2.089,0,0,0,.757.471,2.673,2.673,0,0,0,.94.173,2.609,2.609,0,0,0,1.521-.5,3.51,3.51,0,0,0,1.122-1.35,4.239,4.239,0,0,0,.411-1.864,3.583,3.583,0,0,0-.088-.8,1.159,1.159,0,0,0-.213-.511.41.41,0,0,0-.161-.113.489.489,0,0,0-.2-.046,1,1,0,0,0-.444.161,2.627,2.627,0,0,0-.5.374.49.49,0,0,0-.192.35A.946.946,0,0,0,39.2,65a2.314,2.314,0,0,1,.4,1.216,2.028,2.028,0,0,1-.125.675,2.463,2.463,0,0,1-.328.636,1.861,1.861,0,0,1-.453.459.843.843,0,0,1-.49.176.727.727,0,0,1-.5-.192,1.216,1.216,0,0,1-.3-.563,3.522,3.522,0,0,1-.106-.934,2.709,2.709,0,0,1,.064-.651,2.512,2.512,0,0,1,.155-.547Z" transform="translate(-24.777 -43.848)" fill="#3c2517"></path><path id="Path_121" data-name="Path 121" d="M60.979,63.456c-.082,0-.21.082-.377.243a1.341,1.341,0,0,0-.5.949v.186c0,.24.024.45.024.626a5.38,5.38,0,0,1-.067.867,4.866,4.866,0,0,1-.164.736,2.05,2.05,0,0,1-.246.526c-.094.137-.186.2-.277.2-.3,0-.474-.4-.474-1.216a7.6,7.6,0,0,1,.14-1.366A9.455,9.455,0,0,1,59.4,63.8a1.782,1.782,0,0,0,.116-.444.228.228,0,0,0-.109-.2.462.462,0,0,0-.268-.076,2.01,2.01,0,0,0-.572.1,1.174,1.174,0,0,0-.438.2,6.615,6.615,0,0,0-.912,1.654,3.1,3.1,0,0,1-.137.3c-.1.222-.222.45-.353.684-.058.1-.109.189-.158.262s-.1.155-.149.24q-.219.347-.411.608l-.018-.018c0-.335,0-.675.021-1.022s.024-.608.04-.815.04-.459.076-.779a10.228,10.228,0,0,1,.167-1.119.514.514,0,0,0,.018-.116.207.207,0,0,0-.073-.167.28.28,0,0,0-.189-.061,1.663,1.663,0,0,0-.374.061,3.858,3.858,0,0,0-.459.149,1.587,1.587,0,0,0-.38.2.678.678,0,0,0-.2.262,4.389,4.389,0,0,0-.167,1.5,17.842,17.842,0,0,0,.155,2.348,2.664,2.664,0,0,0,.35,1.216.3.3,0,0,0,.113.079.344.344,0,0,0,.116.027.952.952,0,0,0,.4-.113,1.625,1.625,0,0,0,.4-.262,7.458,7.458,0,0,0,.715-.937A12.4,12.4,0,0,0,57.4,66.4h0v.3a3.239,3.239,0,0,0,.344,1.685,1.143,1.143,0,0,0,1.043.547,1.216,1.216,0,0,0,.718-.237,3.078,3.078,0,0,0,.538-.5,4.3,4.3,0,0,0,.468-.633,5.08,5.08,0,0,0,.587-1.5,6.456,6.456,0,0,0,.173-1.521C61.274,63.827,61.173,63.456,60.979,63.456Z" transform="translate(-37.899 -43.868)" fill="#3c2517"></path><path id="Path_122" data-name="Path 122" d="M84.534,62.993a.2.2,0,0,0-.17-.067,1.025,1.025,0,0,0-.408.088,1.216,1.216,0,0,0-.377.246,1.077,1.077,0,0,0-.167.228,6.578,6.578,0,0,0-.517,1.545c-.128.487-.24.879-.331,1.177a2.152,2.152,0,0,1-.158-.265,4.512,4.512,0,0,1-.258-.608q-.155-.432-.283-.894a3.8,3.8,0,0,0-.526-1.356.718.718,0,0,0-.544-.192,2.053,2.053,0,0,0-.471.061,3.279,3.279,0,0,0-.52.164q-.265.094-.265.182c0,.046.046.1.134.158s.2.189.2.271a.912.912,0,0,1-.119.325,8.264,8.264,0,0,0-.377.885l-.408,1.025-.3.809c-.055.131-.1.243-.131.335a8.616,8.616,0,0,1-.5,1.019,1.156,1.156,0,0,0-.192.459q0,.173.219.173a1.308,1.308,0,0,0,.523-.113,1.651,1.651,0,0,0,.484-.3,1.46,1.46,0,0,0,.228-.286,2.4,2.4,0,0,0,.179-.356c.061-.143.137-.359.231-.645a.369.369,0,0,1,.04-.094c.015-.036.03-.073.043-.106a.757.757,0,0,1,.043-.125.39.39,0,0,1,.033-.109l.517-1.63H80.4a4.29,4.29,0,0,0,.122.468,12.865,12.865,0,0,0,1.086,2.582c.252.465.49.7.712.7a.383.383,0,0,0,.262-.131.99.99,0,0,0,.131-.167,11.858,11.858,0,0,0,.788-1.879c.018-.043.04-.1.061-.167l.064-.158q.3-.791.484-1.341c.131-.368.231-.672.3-.912a5.086,5.086,0,0,0,.149-.575.682.682,0,0,0,.021-.182A.383.383,0,0,0,84.534,62.993Z" transform="translate(-54.167 -43.766)" fill="#3c2517"></path><path id="Path_123" data-name="Path 123" d="M28.894,88.425c0-.3-.186-.481-.553-.481a.657.657,0,0,0-.514.2,1.259,1.259,0,0,0-.167.246,3.166,3.166,0,0,0-.176.377c-.058.146-.128.335-.21.572s-.158.474-.231.718l-.064.225-1.314.027.015-.027a.277.277,0,0,1,.03-.088.417.417,0,0,0,.021-.073,11.676,11.676,0,0,0,.511-1.706.45.45,0,0,0-.073-.255.493.493,0,0,0-.21-.17.743.743,0,0,0-.3-.064.66.66,0,0,0-.474.176,2.365,2.365,0,0,0-.146.189,8.364,8.364,0,0,0-.547,1.426c-.1.328-.17.544-.2.645a.666.666,0,0,0-.259.173,1.348,1.348,0,0,0-.219.3.639.639,0,0,0-.085.3c0,.125.091.2.277.24-.076.2-.143.42-.207.645a2.217,2.217,0,0,0-.091.474.35.35,0,0,0,.158.3.705.705,0,0,0,.426.116.812.812,0,0,0,.563-.21,1,1,0,0,0,.091-.125,4.7,4.7,0,0,0,.319-.882c.024-.088.046-.158.058-.21l.07-.237,1.268.018c-.018.055-.046.143-.088.262a4.425,4.425,0,0,0-.268,1.064.286.286,0,0,0,.094.231.4.4,0,0,0,.265.082,1.1,1.1,0,0,0,.368-.082,1.521,1.521,0,0,0,.392-.216.641.641,0,0,0,.14-.146,1.426,1.426,0,0,0,.1-.195c.036-.076.079-.185.131-.322l.155-.417c.033-.094.058-.158.073-.195v-.058a1.19,1.19,0,0,0,.3-.082.934.934,0,0,0,.186-.158,1.777,1.777,0,0,0,.2-.259.468.468,0,0,0,.094-.225.213.213,0,0,0-.113-.189.59.59,0,0,0-.3-.067h-.058a1.357,1.357,0,0,1,.085-.216A5.51,5.51,0,0,0,28.894,88.425Z" transform="translate(-16.492 -61.188)" fill="#3c2517"></path><path id="Path_124" data-name="Path 124" d="M45.636,91.417c-.04-.1-.07-.176-.094-.231-.073-.189-.122-.325-.149-.414s-.082-.286-.164-.608c-.027-.113-.058-.28-.094-.5a6.738,6.738,0,0,0-.216-1,1.451,1.451,0,0,0-.3-.55.8.8,0,0,0-.608-.225,2.026,2.026,0,0,0-.663.094.538.538,0,0,0-.152.088l.216.392-.426.745c-.1.189-.2.353-.283.5s-.149.268-.2.365-.173.3-.365.666a1.609,1.609,0,0,0-.429.046.684.684,0,0,0-.265.192q-.3.3-.3.465t.374.265c-.046.07-.113.167-.207.3a2.041,2.041,0,0,0-.392.648.149.149,0,0,0,.082.14.66.66,0,0,0,.277.043,1.478,1.478,0,0,0,.557-.091.931.931,0,0,0,.392-.3,3.392,3.392,0,0,0,.368-.636l.033-.07a5.041,5.041,0,0,1,.76.021h.231a1.861,1.861,0,0,0,.651-.173l.043.131a.3.3,0,0,0,.033.1,4.087,4.087,0,0,0,.271.66.769.769,0,0,0,.255.259.688.688,0,0,0,.353.082.958.958,0,0,0,.377-.091,3.556,3.556,0,0,0,.5-.3c-.158-.3-.277-.547-.356-.733C45.712,91.609,45.675,91.515,45.636,91.417Zm-2.57-.608.651-1.384h0l.3,1.384Z" transform="translate(-28.468 -61.157)" fill="#3c2517"></path><path id="Path_125" data-name="Path 125" d="M60.465,90.124l.116-.283c.17-.411.3-.748.383-1.016a2.2,2.2,0,0,0,.109-.55.234.234,0,0,0-.1-.216A.644.644,0,0,0,60.639,88a2.267,2.267,0,0,0-.459.043,1.019,1.019,0,0,0-.328.122.608.608,0,0,0-.2.213,12.083,12.083,0,0,0-.73,2.129c-.14.514-.249.946-.325,1.292a4.313,4.313,0,0,0-.113.718.35.35,0,0,0,.2.356l.119.033a5.992,5.992,0,0,0,.709.03,4.537,4.537,0,0,0,.724-.043.669.669,0,0,0,.347-.155,1.666,1.666,0,0,0,.3-.365.681.681,0,0,0,.137-.328c0-.067-.043-.1-.125-.1a3.107,3.107,0,0,0-.389.064,6.993,6.993,0,0,1-.794.125,9.293,9.293,0,0,1,.3-.912C60.161,90.851,60.295,90.486,60.465,90.124Z" transform="translate(-40.698 -61.233)" fill="#3c2517"></path><path id="Path_126" data-name="Path 126" d="M69.68,90.126l.116-.283c.17-.411.3-.748.383-1.016a2.2,2.2,0,0,0,.128-.544.234.234,0,0,0-.1-.216.645.645,0,0,0-.338-.07,2.268,2.268,0,0,0-.459.043,1.018,1.018,0,0,0-.328.122.608.608,0,0,0-.2.213,12.082,12.082,0,0,0-.73,2.129c-.14.514-.249.946-.325,1.293a4.311,4.311,0,0,0-.113.718.35.35,0,0,0,.2.356l.119.033a5.988,5.988,0,0,0,.709.03,4.533,4.533,0,0,0,.724-.043.669.669,0,0,0,.347-.155,1.668,1.668,0,0,0,.3-.365.681.681,0,0,0,.137-.328c0-.067-.043-.1-.125-.1a3.107,3.107,0,0,0-.389.064,7,7,0,0,1-.794.125,9.293,9.293,0,0,1,.3-.912C69.382,90.852,69.525,90.487,69.68,90.126Z" transform="translate(-47.121 -61.234)" fill="#3c2517"></path></g></svg>