<svg xmlns="http://www.w3.org/2000/svg" id="Group_551" data-name="Group 551" width="60.355" height="57.613" viewBox="0 0 60.355 57.613"><path id="Path_4405" data-name="Path 4405" d="M30.272.065C47.579,5.231,61.528,30.028,61.528,30.028S48.1,57.926,27.173,56.634-.725,42.685,1.6,26.67,12.966-5.1,30.272.065Z" transform="translate(-1.173 0.935)" fill="#e6e6e6"></path><g id="Prastige" transform="translate(9.462 13.202)"><path id="Path_77" data-name="Path 77" d="M59,67.84Z" transform="translate(-35.679 -41.025)" fill="none"></path><path id="Path_78" data-name="Path 78" d="M21.262,27.76c0-.091.087-.225.261-.4a.6.6,0,0,1,.229-.166,1.356,1.356,0,0,1,.376-.036l.312-.581.178-.316.245-.431.372-.648-.19-.34a.439.439,0,0,1,.134-.079,1.858,1.858,0,0,1,.573-.079.688.688,0,0,1,.526.194,1.269,1.269,0,0,1,.261.478c.032.087.059.2.091.32h0a15.23,15.23,0,0,0,1.546-1.791h0a1.079,1.079,0,0,1-.4.071,1.455,1.455,0,0,1-.613-.134,2.02,2.02,0,0,1-.565-.4.739.739,0,0,1-.269-.474.352.352,0,0,1,.119-.249,1.067,1.067,0,0,1,.3-.209.719.719,0,0,1,.3-.087.213.213,0,0,1,.123.036.328.328,0,0,1,.087.119,1.633,1.633,0,0,1,.075.233,1.719,1.719,0,0,0,.111.308.953.953,0,0,0,.138.2.261.261,0,0,0,.194.091.229.229,0,0,0,.194-.095.451.451,0,0,0,.071-.269.941.941,0,0,0-.186-.534,1.285,1.285,0,0,0-.123-.158c-.043-.047-.142-.134-.289-.265-.047-.04-.119-.1-.217-.2a1.976,1.976,0,0,1-.4-.478.957.957,0,0,1-.075-.451,1.154,1.154,0,0,1,.217-.672,1.546,1.546,0,0,1,.585-.514,1.731,1.731,0,0,1,.791-.186,1.186,1.186,0,0,1,.731.2.676.676,0,0,1,.257.561.85.85,0,0,1-.091.36A1.4,1.4,0,0,1,27,21.04a1.186,1.186,0,0,1-.21.17.3.3,0,0,1-.158.055c-.055,0-.083-.04-.083-.123v-.095a1.629,1.629,0,0,0,0-.261,1.186,1.186,0,0,0-.047-.324,1,1,0,0,0-.123-.269c-.051-.075-.1-.111-.146-.111a.111.111,0,0,0-.075.051.625.625,0,0,0-.13.217.668.668,0,0,0-.047.237.735.735,0,0,0,.178.5,2.371,2.371,0,0,0,.265.273,3.119,3.119,0,0,1,.4.4,1.237,1.237,0,0,1,.206.348.992.992,0,0,1,.063.285h0a14.9,14.9,0,0,0,.854-1.771h0c-.253,0-.4-.091-.4-.265a.723.723,0,0,1,.249-.435,1.075,1.075,0,0,1,.308-.237.826.826,0,0,1,.19-.055,15.3,15.3,0,0,0,.747-4.743,15.131,15.131,0,0,0-2.459-8.3,8.594,8.594,0,0,0-.933.4,5.366,5.366,0,0,1,.842,7.439c-3.838,4.546-7.4,1.917-7.866,1.581s.3-.791.3-.791,4.4,2.182,6.1-2.316c.791-2.767-.051-4.348-.719-5.119h0c-4.941,4.977-4.471,5.593-8.53,12.3S6.237,26.8,6.237,26.8c-.854.095-.182-.759-.182-.759,5.7-1.85,9.032-9.178,11.21-11.755A45.7,45.7,0,0,1,23.649,7.21c-10.21-5.451-20.641,2.672-21.8,8.973s5.19,4.3,6.894,3.787,8.234-5.7,5.929-9.091C11.53,8.21,7.234,13.566,6.107,15.6s-.217,2.648.47,2.972,0,.652,0,.652-2.767-.4-1.522-3.976a9.2,9.2,0,0,1,7.637-5.8c2.937-.364,4.573,2.767,1.411,6.969S6.237,22.29,2.834,21.1-1.229,11.787,8.166,6.755c8.3-4.245,14.993-1.332,16.206-.708a4.269,4.269,0,0,1,.522.324c.439-.285.834-.53,1.067-.672A14.384,14.384,0,0,0,14.542,0,14.735,14.735,0,0,0,0,14.922,14.735,14.735,0,0,0,14.542,29.843a14.206,14.206,0,0,0,7.032-1.858h0C21.369,27.942,21.262,27.867,21.262,27.76Zm-4.7-4.637c.047-.19.119-.443.213-.751s.2-.609.3-.9.221-.6.344-.909l.083-.213a1.79,1.79,0,0,0-.194.032.945.945,0,0,1-.17,0,.134.134,0,0,1-.15-.142.34.34,0,0,1,.04-.15.36.36,0,0,1,.087-.134.921.921,0,0,1,.455-.17,4.391,4.391,0,0,1,.791-.063,2.415,2.415,0,0,1,.68.095,1.917,1.917,0,0,1,.557.265,1.261,1.261,0,0,1,.368.4.913.913,0,0,1,.146.474,1.186,1.186,0,0,1-.115.51,1.261,1.261,0,0,1-.324.4,1.277,1.277,0,0,1-.261.178,1.759,1.759,0,0,1-.344.13.949.949,0,0,0,.1.166,1.47,1.47,0,0,0,.15.166,2.692,2.692,0,0,0,.791.455l.059.024a2.458,2.458,0,0,1-.1.4,1.391,1.391,0,0,1-.158.261.561.561,0,0,1-.459.257.9.9,0,0,1-.368-.111,1.249,1.249,0,0,1-.356-.257q-.107-.13-.2-.273c-.059-.091-.119-.2-.182-.32a3.352,3.352,0,0,1-.158-.352,1.909,1.909,0,0,1-.1-.3.293.293,0,0,1,0-.071.134.134,0,0,1,.04-.1.316.316,0,0,1,.134-.071.956.956,0,0,0,.229-.107,2.206,2.206,0,0,0,.225-.19,1.257,1.257,0,0,0,.249-.387,1.344,1.344,0,0,0,.087-.459.668.668,0,0,0-.126-.431.68.68,0,0,0-.4-.213c-.178.644-.356,1.253-.526,1.822l-.067.233c-.107.372-.2.648-.269.826a1.15,1.15,0,0,1-.221.4,1.028,1.028,0,0,1-.336.213.921.921,0,0,1-.36.107c-.166,0-.253-.095-.253-.285A1.945,1.945,0,0,1,16.566,23.124Zm3.988,3.6h.024a.506.506,0,0,1,.265.059.182.182,0,0,1,.1.162.419.419,0,0,1-.083.2,1.451,1.451,0,0,1-.178.221.755.755,0,0,1-.162.138.977.977,0,0,1-.253.071v.051a1.292,1.292,0,0,1-.063.17c-.028.083-.087.237-.134.36s-.083.213-.111.281a1.324,1.324,0,0,1-.091.17.723.723,0,0,1-.119.126,1.3,1.3,0,0,1-.344.186.945.945,0,0,1-.316.071.34.34,0,0,1-.229-.071.253.253,0,0,1-.083-.2A3.858,3.858,0,0,1,19,27.792c.04-.107.063-.182.079-.229h-1.1l-.063.206a.767.767,0,0,1-.051.182,3.866,3.866,0,0,1-.277.767.546.546,0,0,1-.079.111.715.715,0,0,1-.49.182.621.621,0,0,1-.368-.1.3.3,0,0,1-.138-.257,1.854,1.854,0,0,1,.083-.4,5.825,5.825,0,0,1,.166-.585c-.162-.028-.241-.1-.241-.206a.549.549,0,0,1,.075-.257,1.131,1.131,0,0,1,.19-.261.581.581,0,0,1,.221-.146c.032-.091.091-.277.178-.561A7.253,7.253,0,0,1,17.669,25a1.474,1.474,0,0,1,.126-.166.585.585,0,0,1,.4-.15.66.66,0,0,1,.273.051.435.435,0,0,1,.182.15.4.4,0,0,1,.063.221,9.8,9.8,0,0,1-.443,1.482.5.5,0,0,1,0,.063l-.024.075v.024l1.127-.032.055-.194c.063-.213.13-.419.2-.625s.13-.372.182-.494a2.636,2.636,0,0,1,.154-.332.937.937,0,0,1,.146-.213.573.573,0,0,1,.447-.174c.32,0,.482.138.482.419a4.743,4.743,0,0,1-.419,1.431c-.043.1-.067.166-.075.186Zm.138-3.49a1.233,1.233,0,0,1-.194-.668,2.083,2.083,0,0,1,.126-.668,3.739,3.739,0,0,1,.356-.727,3.9,3.9,0,0,1,.518-.66,3.6,3.6,0,0,1,.557-.474,3.135,3.135,0,0,1,.6-.324,1.411,1.411,0,0,1,.534-.115,1.028,1.028,0,0,1,.66.217.652.652,0,0,1,.257.526.937.937,0,0,1-.051.3.992.992,0,0,1-.13.285,1.119,1.119,0,0,1-.257.253,1.886,1.886,0,0,1-.4.213,1.277,1.277,0,0,1-.439.1c-.123,0-.186-.032-.186-.091s.036-.091.1-.166a1.032,1.032,0,0,0,.213-.269,2.079,2.079,0,0,0,.174-.431,1.38,1.38,0,0,0,.075-.4c0-.075-.024-.115-.067-.115a1.087,1.087,0,0,0-.4.237,2.858,2.858,0,0,0-.447.47,2.645,2.645,0,0,0-.253.443,1.779,1.779,0,0,0-.13.439h1.648c.182,0,.273.047.273.138s-.1.229-.3.427a.878.878,0,0,1-.553.269H21.9v.087a.7.7,0,0,0,.13.4.364.364,0,0,0,.285.186,1.4,1.4,0,0,0,.466-.119,5.434,5.434,0,0,0,.7-.336l.107-.067a1,1,0,0,0,.15-.091.684.684,0,0,1,.229-.115c.04,0,.055.032.055.1a.921.921,0,0,1-.04.253,1.613,1.613,0,0,1-.1.273.518.518,0,0,1-.123.186,2.273,2.273,0,0,1-.6.344,5.443,5.443,0,0,1-.866.293,1.388,1.388,0,0,1-.273.028,1.727,1.727,0,0,1-.791-.17,1.356,1.356,0,0,1-.53-.462Z" transform="translate(0 0)" fill="#5f3b19"></path><path id="Path_79" data-name="Path 79" d="M58.51,66.576l.312-.249L58.7,65.75h0l-.506,1.079.32-.245Z" transform="translate(-35.189 -39.761)" fill="#5f3b19"></path><path id="Path_80" data-name="Path 80" d="M41.983,53.981a.921.921,0,0,0,.36-.107,1.028,1.028,0,0,0,.336-.213,1.15,1.15,0,0,0,.221-.4c.071-.178.162-.455.269-.826l.067-.233c.17-.569.348-1.186.526-1.822a.68.68,0,0,1,.4.213.668.668,0,0,1,.126.431,1.344,1.344,0,0,1-.075.486,1.257,1.257,0,0,1-.245.4,2.205,2.205,0,0,1-.225.19.957.957,0,0,1-.229.107.316.316,0,0,0-.134.071.134.134,0,0,0-.04.1.292.292,0,0,0,0,.071,1.908,1.908,0,0,0,.1.3,3.351,3.351,0,0,0,.158.352c.063.119.123.229.182.32a3.226,3.226,0,0,0,.2.273,1.249,1.249,0,0,0,.356.257.9.9,0,0,0,.368.111.561.561,0,0,0,.459-.257,1.391,1.391,0,0,0,.158-.261,2.46,2.46,0,0,0,.1-.4l-.059-.024a2.692,2.692,0,0,1-.791-.455,1.471,1.471,0,0,1-.15-.166.949.949,0,0,1-.1-.166,1.759,1.759,0,0,0,.344-.13,1.277,1.277,0,0,0,.261-.178,1.261,1.261,0,0,0,.324-.4,1.186,1.186,0,0,0,.111-.518.913.913,0,0,0-.13-.474,1.261,1.261,0,0,0-.368-.4,1.917,1.917,0,0,0-.557-.265,2.415,2.415,0,0,0-.68-.095,4.391,4.391,0,0,0-.791.063.921.921,0,0,0-.455.17.36.36,0,0,0-.087.134.34.34,0,0,0-.04.15.134.134,0,0,0,.15.154.944.944,0,0,0,.17,0,1.792,1.792,0,0,1,.194-.032l-.083.213c-.123.308-.237.613-.344.909s-.206.593-.3.9a7.128,7.128,0,0,0-.229.739,1.944,1.944,0,0,0-.071.4C41.73,53.886,41.837,53.981,41.983,53.981Z" transform="translate(-25.235 -30.169)" fill="#fff"></path><path id="Path_81" data-name="Path 81" d="M53.689,53.819a5.444,5.444,0,0,0,.866-.293,2.273,2.273,0,0,0,.6-.344A.518.518,0,0,0,55.278,53a1.612,1.612,0,0,0,.1-.273.921.921,0,0,0,.04-.253c0-.071,0-.1-.055-.1a.684.684,0,0,0-.229.115,1,1,0,0,1-.15.091l-.107.067a5.434,5.434,0,0,1-.7.336,1.4,1.4,0,0,1-.466.119.364.364,0,0,1-.285-.186.7.7,0,0,1-.13-.4v-.075h1.127a.878.878,0,0,0,.553-.269c.2-.2.3-.34.3-.427s-.091-.138-.273-.138H53.361a1.778,1.778,0,0,1,.13-.439,2.644,2.644,0,0,1,.253-.443,2.857,2.857,0,0,1,.447-.47c.19-.158.316-.237.4-.237s.067.04.067.115a1.38,1.38,0,0,1-.075.4,2.08,2.08,0,0,1-.178.4,1.032,1.032,0,0,1-.213.269c-.067.075-.1.13-.1.166s.063.091.186.091a1.277,1.277,0,0,0,.455-.091,1.886,1.886,0,0,0,.4-.213,1.119,1.119,0,0,0,.257-.253.992.992,0,0,0,.13-.285.938.938,0,0,0,.051-.3.652.652,0,0,0-.273-.526,1.028,1.028,0,0,0-.66-.217,1.411,1.411,0,0,0-.534.115,3.134,3.134,0,0,0-.6.324,3.6,3.6,0,0,0-.557.474,3.9,3.9,0,0,0-.518.66,3.739,3.739,0,0,0-.356.727,2.083,2.083,0,0,0-.126.668,1.233,1.233,0,0,0,.194.668,1.356,1.356,0,0,0,.518.486,1.727,1.727,0,0,0,.791.17A1.387,1.387,0,0,0,53.689,53.819Z" transform="translate(-31.403 -29.976)" fill="#fff"></path><path id="Path_82" data-name="Path 82" d="M46.294,62.861c0-.281-.162-.419-.482-.419a.573.573,0,0,0-.443.174.936.936,0,0,0-.146.213,2.635,2.635,0,0,0-.154.332c-.051.123-.111.289-.182.494s-.138.4-.2.625l-.051.194L43.5,64.5v-.024l.024-.075a.5.5,0,0,0,0-.063,9.8,9.8,0,0,0,.443-1.482.4.4,0,0,0-.063-.221.435.435,0,0,0-.182-.15.66.66,0,0,0-.273-.051.585.585,0,0,0-.4.15,1.473,1.473,0,0,0-.126.166,7.253,7.253,0,0,0-.478,1.237c-.087.285-.146.47-.178.561a.581.581,0,0,0-.221.146,1.131,1.131,0,0,0-.19.261.549.549,0,0,0-.075.257c0,.107.079.178.241.206q-.091.277-.154.561a1.854,1.854,0,0,0-.083.4.3.3,0,0,0,.138.257.62.62,0,0,0,.368.1.715.715,0,0,0,.49-.182.545.545,0,0,0,.079-.111,3.865,3.865,0,0,0,.277-.767c.024-.075.04-.134.051-.182l.063-.206h1.1a1.042,1.042,0,0,1-.079.229,3.858,3.858,0,0,0-.229.921.253.253,0,0,0,.083.2.34.34,0,0,0,.229.071.945.945,0,0,0,.316-.071,1.3,1.3,0,0,0,.344-.186.723.723,0,0,0,.119-.126c.028-.047.059-.1.091-.17s.067-.162.111-.281.091-.241.134-.36.051-.138.063-.17v-.051a.977.977,0,0,0,.253-.071.755.755,0,0,0,.162-.138,1.451,1.451,0,0,0,.178-.221.419.419,0,0,0,.083-.2.182.182,0,0,0-.1-.162.506.506,0,0,0-.265-.059H45.82s.032-.083.075-.186A4.744,4.744,0,0,0,46.294,62.861Z" transform="translate(-25.265 -37.753)" fill="#fff"></path><path id="Path_83" data-name="Path 83" d="M58.419,67.467l-.32.245-.059.123h.838l-.134-.625-.312.249Z" transform="translate(-35.098 -40.644)" fill="none"></path><path id="Path_84" data-name="Path 84" d="M59,67.459l.312-.249h0Z" transform="translate(-35.679 -40.644)" fill="#5f3b19"></path><path id="Path_85" data-name="Path 85" d="M58.17,68.105h0l.32-.245Z" transform="translate(-35.177 -41.037)" fill="#5f3b19"></path><path id="Path_86" data-name="Path 86" d="M67.462,58.52l-.032.051Z" transform="translate(-40.777 -35.389)" fill="#fff"></path><path id="Path_87" data-name="Path 87" d="M66.86,59.51Z" transform="translate(-40.432 -35.987)" fill="#fff"></path><path id="Path_88" data-name="Path 88" d="M68.038,57.61l-.028.047Z" transform="translate(-41.127 -34.838)" fill="#fff"></path><path id="Path_89" data-name="Path 89" d="M63.752,53.508l.225-.34.032-.051.2-.312.028-.047c.071-.119.142-.237.209-.356a.992.992,0,0,0-.063-.285,1.237,1.237,0,0,0-.206-.348,3.119,3.119,0,0,0-.4-.4,2.371,2.371,0,0,1-.265-.273.735.735,0,0,1-.178-.5.668.668,0,0,1,.047-.237.625.625,0,0,1,.13-.217.111.111,0,0,1,.075-.051c.047,0,.095.036.146.111a1,1,0,0,1,.123.269,1.185,1.185,0,0,1,.047.324,1.628,1.628,0,0,1,0,.261v.095c0,.083.028.123.083.123a.3.3,0,0,0,.158-.055,1.186,1.186,0,0,0,.21-.17,1.4,1.4,0,0,0,.257-.344.85.85,0,0,0,.091-.36.676.676,0,0,0-.257-.561,1.186,1.186,0,0,0-.731-.2,1.731,1.731,0,0,0-.791.186,1.546,1.546,0,0,0-.585.5,1.154,1.154,0,0,0-.217.672.957.957,0,0,0,.107.447,1.977,1.977,0,0,0,.4.478c.1.095.17.158.217.2.146.13.245.217.289.265a1.286,1.286,0,0,1,.123.158.941.941,0,0,1,.186.534.451.451,0,0,1-.071.269.229.229,0,0,1-.194.095.261.261,0,0,1-.194-.091.952.952,0,0,1-.138-.2,1.719,1.719,0,0,1-.111-.308,1.633,1.633,0,0,0-.075-.233.328.328,0,0,0-.087-.119.213.213,0,0,0-.123-.036.719.719,0,0,0-.3.087,1.067,1.067,0,0,0-.3.209.352.352,0,0,0-.119.249.739.739,0,0,0,.269.474,2.02,2.02,0,0,0,.565.4,1.455,1.455,0,0,0,.613.134,1.079,1.079,0,0,0,.4-.071l.249-.352Z" transform="translate(-37.324 -29.985)" fill="#fff"></path><path id="Path_90" data-name="Path 90" d="M61.08,66.1Z" transform="translate(-36.937 -39.972)" fill="#fff"></path><path id="Path_91" data-name="Path 91" d="M55.5,70.24h-.02Z" transform="translate(-33.55 -42.476)" fill="#fff"></path><path id="Path_92" data-name="Path 92" d="M56.394,69.68H56.37Z" transform="translate(-34.088 -42.137)" fill="#fff"></path><path id="Path_93" data-name="Path 93" d="M57.079,63.1a1.269,1.269,0,0,0-.261-.478.688.688,0,0,0-.526-.194,1.858,1.858,0,0,0-.573.079.439.439,0,0,0-.134.079l.19.34-.372.648L55.158,64l-.178.316-.3.581a1.356,1.356,0,0,0-.375.036.6.6,0,0,0-.229.166c-.174.182-.261.316-.261.4s.107.182.312.225l.356-.209h.02c.115-.067.225-.138.332-.21h.024q.352-.233.688-.474l.506-1.079h0l.126.577c.17-.142.34-.289.5-.435h0c.166-.15.328-.3.486-.459A1.976,1.976,0,0,0,57.079,63.1Z" transform="translate(-32.54 -37.751)" fill="#fff"></path><path id="Path_94" data-name="Path 94" d="M63.8,15.742a8.593,8.593,0,0,1,.933-.4c-.206-.316-.423-.621-.652-.917-.233.142-.629.4-1.067.672a7.115,7.115,0,0,1,.787.64Z" transform="translate(-38.104 -8.726)" fill="#fff"></path><path id="Path_95" data-name="Path 95" d="M32.529,18.21h0a45.7,45.7,0,0,0-6.384,7.075c-2.178,2.577-5.514,9.906-11.21,11.755,0,0-.672.854.182.759,0,0,5.475,0,9.542-6.72s3.589-7.317,8.522-12.289h0A2.846,2.846,0,0,0,32.529,18.21Z" transform="translate(-8.88 -11.012)" fill="#fff"></path><path id="Path_96" data-name="Path 96" d="M25.724,13.231a4.269,4.269,0,0,0-.522-.324C23.977,12.283,17.3,9.35,9,13.615c-9.4,5.032-8.74,13.143-5.34,14.341s8.107-.474,11.269-4.68,1.53-7.324-1.411-6.969A9.159,9.159,0,0,0,5.9,22.089c-1.249,3.573,1.522,3.976,1.522,3.976s.692-.324,0-.652-1.581-.945-.47-2.972,5.423-7.388,8.562-4.72c2.285,3.411-4.245,8.6-5.929,9.091s-8.075,2.526-6.913-3.771,11.593-14.424,21.8-8.985h0C24.862,13.789,25.328,13.5,25.724,13.231Z" transform="translate(-0.821 -6.86)" fill="#fff"></path><path id="Path_97" data-name="Path 97" d="M53.366,23.6c-1.708,4.5-6.056,2.336-6.056,2.336s-.767.439-.3.791,4.028,2.98,7.866-1.581a5.366,5.366,0,0,0-.842-7.439c-.715.348-1.324.723-1.383.759C53.314,19.248,54.148,20.829,53.366,23.6Z" transform="translate(-28.337 -10.71)" fill="#fff"></path><path id="Path_98" data-name="Path 98" d="M59.83,16.946h0a2.846,2.846,0,0,1,.66.577c.059-.036.668-.4,1.383-.759a7.114,7.114,0,0,0-.791-.644C60.688,16.385,60.221,16.677,59.83,16.946Z" transform="translate(-36.181 -9.748)" fill="#fff"></path><path id="Path_99" data-name="Path 99" d="M71.287,50.647l-.17.4c-.079.182-.15.356-.213.514s-.115.3-.158.435-.095.277-.15.451a4.6,4.6,0,0,0-.265,1.123.4.4,0,0,0,.107.277.332.332,0,0,0,.261.115,1.237,1.237,0,0,0,.613-.253.565.565,0,0,0,.186-.19,5.636,5.636,0,0,0,.36-1.186.636.636,0,0,0,0-.075v-.083a.175.175,0,0,1,.032-.115l.028-.134.032-.126.047-.186c.071-.265.115-.419.13-.466a1.668,1.668,0,0,0,.087-.4.229.229,0,0,0-.075-.166h.126a.85.85,0,0,0,.439-.146.4.4,0,0,0,.095-.15.636.636,0,0,0,.036-.2.253.253,0,0,0-.059-.166.4.4,0,0,0-.186-.095,3.335,3.335,0,0,0-.411-.059h-.17l-.621-.051h-.51c-.111.336-.229.668-.364.992A5.417,5.417,0,0,0,71.287,50.647Z" transform="translate(-42.53 -30.061)" fill="#5f3b19"></path><path id="Path_100" data-name="Path 100" d="M70.049,50.013a.723.723,0,0,0-.249.435c0,.174.127.265.4.265h0c.134-.324.253-.656.364-.992a.826.826,0,0,0-.19.055A1.075,1.075,0,0,0,70.049,50.013Z" transform="translate(-42.21 -30.067)" fill="#5f3b19"></path><path id="Path_101" data-name="Path 101" d="M66.924,57.143l-.2.312-.032.051-.225.34h0l-.249.352a1.364,1.364,0,0,0,.261-.134,1.581,1.581,0,0,0,.5-.542,1.372,1.372,0,0,0,.19-.668V56.76c-.067.119-.138.237-.209.356Z" transform="translate(-40.045 -34.324)" fill="#5f3b19"></path><path id="Path_102" data-name="Path 102" d="M66.22,59.872h0l.249-.352Z" transform="translate(-40.045 -35.993)" fill="#5f3b19"></path><path id="Path_103" data-name="Path 103" d="M68.08,57.066c.071-.119.142-.237.209-.356h0C68.222,56.825,68.151,56.947,68.08,57.066Z" transform="translate(-41.17 -34.294)" fill="#5f3b19"></path><path id="Path_104" data-name="Path 104" d="M67.085,58.65l-.225.34Z" transform="translate(-40.432 -35.467)" fill="#5f3b19"></path><path id="Path_105" data-name="Path 105" d="M67.7,57.73l-.2.312Z" transform="translate(-40.819 -34.911)" fill="#5f3b19"></path><path id="Path_106" data-name="Path 106" d="M57.359,67c-.032-.083-.059-.15-.079-.2-.063-.166-.107-.285-.13-.36s-.071-.249-.142-.518c-.024-.1-.051-.241-.083-.435s-.067-.4-.1-.549c-.158.158-.32.308-.486.459h0c-.162.146-.332.292-.5.435l.134.625h-.85l.059-.123q-.34.241-.688.474h-.024c-.107.071-.217.142-.332.209h-.02l-.356.209h0c-.04.059-.1.146-.182.253a1.8,1.8,0,0,0-.34.561.13.13,0,0,0,.071.123.569.569,0,0,0,.237.036,1.333,1.333,0,0,0,.486-.079.826.826,0,0,0,.34-.265,3.02,3.02,0,0,0,.352-.522l.028-.063.66.02h.2a1.581,1.581,0,0,0,.565-.154.354.354,0,0,0,.036.115l.032.087a3.392,3.392,0,0,0,.233.573.708.708,0,0,0,.221.225.6.6,0,0,0,.3.071.842.842,0,0,0,.328-.079,2.986,2.986,0,0,0,.439-.265c-.138-.265-.241-.474-.308-.636Z" transform="translate(-32.195 -39.271)" fill="#5f3b19"></path><path id="Path_107" data-name="Path 107" d="M59.8,66.545c.17-.142.34-.289.5-.435C60.14,66.256,59.97,66.4,59.8,66.545Z" transform="translate(-36.163 -39.978)" fill="#5f3b19"></path><path id="Path_108" data-name="Path 108" d="M56.43,68.954q.352-.233.688-.474h0Q56.782,68.725,56.43,68.954Z" transform="translate(-34.125 -41.412)" fill="#5f3b19"></path><path id="Path_109" data-name="Path 109" d="M55.862,69.71c-.107.071-.217.142-.332.21C55.645,69.852,55.755,69.781,55.862,69.71Z" transform="translate(-33.58 -42.155)" fill="#5f3b19"></path><path id="Path_110" data-name="Path 110" d="M61.08,65.4c.166-.15.328-.3.486-.459h0C61.408,65.1,61.246,65.248,61.08,65.4Z" transform="translate(-36.937 -39.271)" fill="#5f3b19"></path><path id="Path_111" data-name="Path 111" d="M54.58,70.479h0l.356-.21Z" transform="translate(-33.006 -42.494)" fill="#5f3b19"></path><path id="Path_112" data-name="Path 112" d="M66.713,64.314l.1-.249c.146-.356.253-.648.328-.878a1.891,1.891,0,0,0,.111-.478.206.206,0,0,0-.083-.186.593.593,0,0,0-.3-.055,1.976,1.976,0,0,0-.4.04.818.818,0,0,0-.281.1.526.526,0,0,0-.174.186,10.192,10.192,0,0,0-.632,1.858c-.123.447-.217.822-.285,1.123a3.67,3.67,0,0,0-.111.613.308.308,0,0,0,.174.312l.1.028a4.968,4.968,0,0,0,.617.028,3.464,3.464,0,0,0,.628-.04.573.573,0,0,0,.3-.13,1.537,1.537,0,0,0,.269-.32.6.6,0,0,0,.119-.285c0-.055-.036-.087-.107-.087a3.045,3.045,0,0,0-.34.055,6.6,6.6,0,0,1-.688.111c.115-.4.2-.648.253-.791C66.452,64.946,66.578,64.63,66.713,64.314Z" transform="translate(-39.304 -37.775)" fill="#5f3b19"></path><path id="Path_113" data-name="Path 113" d="M72.891,64.314l.1-.249q.217-.534.332-.878a2.086,2.086,0,0,0,.111-.478.2.2,0,0,0-.087-.186.577.577,0,0,0-.293-.055,1.977,1.977,0,0,0-.4.04.846.846,0,0,0-.285.1.518.518,0,0,0-.17.186,10.08,10.08,0,0,0-.64,1.858c-.123.447-.217.822-.281,1.123a3.411,3.411,0,0,0-.1.621.3.3,0,0,0,.178.312l.1.028a4.859,4.859,0,0,0,.613.028,3.466,3.466,0,0,0,.628-.04.589.589,0,0,0,.3-.13,1.525,1.525,0,0,0,.265-.32.616.616,0,0,0,.123-.285c0-.055-.04-.087-.111-.087a3.03,3.03,0,0,0-.336.055,6.489,6.489,0,0,1-.692.111c.115-.4.2-.648.257-.791C72.634,64.946,72.756,64.63,72.891,64.314Z" transform="translate(-43.047 -37.775)" fill="#5f3b19"></path><path id="Path_114" data-name="Path 114" d="M87.909,51.752a1.644,1.644,0,0,0-.459.095,2.2,2.2,0,0,0-.49.217.4.4,0,0,0-.115.1c-.024.04-.075.123-.15.257-.241.482-.455.727-.644.727a.312.312,0,0,1-.265-.154.676.676,0,0,1-.107-.4,2.527,2.527,0,0,1,.075-.561,3.857,3.857,0,0,1,.206-.6,2.874,2.874,0,0,1,.285-.518,2.142,2.142,0,0,1,.435-.459.791.791,0,0,1,.4-.209c.043,0,.063.087.063.265a2.34,2.34,0,0,1-.051.423,1.522,1.522,0,0,1-.126.364.324.324,0,0,0-.04.107c0,.051.04.075.111.075a.937.937,0,0,0,.514-.15,1.21,1.21,0,0,0,.4-.4,1.063,1.063,0,0,0,.146-.522c0-.462-.265-.7-.791-.7a2.218,2.218,0,0,0-1.012.269,3.878,3.878,0,0,0-.964.723,3.834,3.834,0,0,0-.719.964,2.344,2.344,0,0,0-.261,1.032,1.8,1.8,0,0,0,.127.7,1,1,0,0,0,.356.451,1.024,1.024,0,0,0,.569.158,1.213,1.213,0,0,0,.545-.138,2.554,2.554,0,0,0,.585-.435,3.645,3.645,0,0,1-.123.577,4.512,4.512,0,0,1-.217.632,1.917,1.917,0,0,1-.4-.344c-.1-.119-.174-.178-.229-.178a.834.834,0,0,0-.316.162,1.139,1.139,0,0,0-.237.2.3.3,0,0,0-.091.182.332.332,0,0,0,.154.241,1.186,1.186,0,0,0,.4.2,1.53,1.53,0,0,0,.474.079,1.644,1.644,0,0,0,.549-.1,1.024,1.024,0,0,0,.4-.245,3.823,3.823,0,0,0,.66-1.067,11.38,11.38,0,0,0,.542-1.684c0-.079,0-.126,0-.138a.17.17,0,0,0-.174-.209Z" transform="translate(-51.002 -30.067)" fill="#5f3b19"></path><path id="Path_115" data-name="Path 115" d="M97.118,51.041a1.163,1.163,0,0,1-.217.277c-.067.075-.1.13-.1.166s.063.091.186.091a1.225,1.225,0,0,0,.447-.107,1.916,1.916,0,0,0,.4-.213,1.083,1.083,0,0,0,.261-.261.862.862,0,0,0,.134-.285.961.961,0,0,0,.051-.3A.668.668,0,0,0,98,49.871a1.048,1.048,0,0,0-.668-.221,1.479,1.479,0,0,0-.545.119,2.826,2.826,0,0,0-.609.332,3.51,3.51,0,0,0-.577.478,3.952,3.952,0,0,0-.526.668,3.558,3.558,0,0,0-.36.743,2.036,2.036,0,0,0-.13.676,1.241,1.241,0,0,0,.2.68,1.316,1.316,0,0,0,.553.478,1.779,1.779,0,0,0,.791.174,1.487,1.487,0,0,0,.277-.032,5.213,5.213,0,0,0,.878-.3,2.308,2.308,0,0,0,.613-.348.557.557,0,0,0,.126-.19,2.094,2.094,0,0,0,.1-.277.947.947,0,0,0,.04-.257c0-.071,0-.107-.055-.107a.7.7,0,0,0-.233.119l-.154.095-.111.063a5.138,5.138,0,0,1-.7.344,1.459,1.459,0,0,1-.47.119.368.368,0,0,1-.292-.186A.7.7,0,0,1,96,52.63v-.075h1.146a.878.878,0,0,0,.561-.277q.308-.3.308-.427c0-.095-.095-.142-.277-.142H96.058a1.81,1.81,0,0,1,.138-.447,2.159,2.159,0,0,1,.257-.451,2.612,2.612,0,0,1,.451-.474.889.889,0,0,1,.4-.245q.071,0,.071.119a1.581,1.581,0,0,1-.075.4A2.413,2.413,0,0,1,97.118,51.041Z" transform="translate(-57.195 -30.024)" fill="#5f3b19"></path><path id="Path_116" data-name="Path 116" d="M79.4,49.89a.4.4,0,0,0-.34.178,4.142,4.142,0,0,0-.557,1.364,6.9,6.9,0,0,0-.245,1.7,2.075,2.075,0,0,0,.063.549,1.11,1.11,0,0,0,.209.4.462.462,0,0,0,.324.186h0a.4.4,0,0,0,.241-.071.909.909,0,0,0,.257-.455,13.777,13.777,0,0,0,.4-1.613,7.323,7.323,0,0,0,.146-1.352,1.237,1.237,0,0,0-.142-.632A.419.419,0,0,0,79.4,49.89Z" transform="translate(-47.325 -30.17)" fill="#5f3b19"></path></g></svg>