<svg xmlns="http://www.w3.org/2000/svg" width="155" height="155" viewBox="0 0 155 155"><g id="Group_543" data-name="Group 543" transform="translate(-0.021 0.012)"><circle id="Ellipse_269" data-name="Ellipse 269" cx="77.5" cy="77.5" r="77.5" transform="translate(0.021 -0.012)" fill="#e6e6e6"></circle><g id="Group_538" data-name="Group 538" transform="translate(43.246 33.299)"><g id="Group_455" data-name="Group 455" transform="translate(38.598)"><path id="Path_4257" data-name="Path 4257" d="M498.356,401.581a3.052,3.052,0,0,0-3.071-3.032v6.063A3.052,3.052,0,0,0,498.356,401.581Z" transform="translate(-468.217 -386.704)" fill="none" stroke="#3b3b3b" stroke-miterlimit="10" stroke-width="1"></path><path id="Path_4258" data-name="Path 4258" d="M491.005,386.57a3.1,3.1,0,0,0-4.343,0l4.343,4.288A3,3,0,0,0,491.005,386.57Z" transform="translate(-465.279 -382.213)" fill="none" stroke="#3b3b3b" stroke-miterlimit="10" stroke-width="1"></path><path id="Path_4259" data-name="Path 4259" d="M475.5,380.352a3.052,3.052,0,0,0-3.071,3.032h6.143A3.052,3.052,0,0,0,475.5,380.352Z" transform="translate(-460.431 -380.352)" fill="none" stroke="#3b3b3b" stroke-miterlimit="10" stroke-width="1"></path><path id="Path_4260" data-name="Path 4260" d="M460.462,386.57a3,3,0,0,0,0,4.288l4.343-4.288A3.1,3.1,0,0,0,460.462,386.57Z" transform="translate(-456.048 -382.213)" fill="none" stroke="#3b3b3b" stroke-miterlimit="10" stroke-width="1"></path><path id="Path_4261" data-name="Path 4261" d="M454.233,401.58a3.052,3.052,0,0,0,3.071,3.032v-6.063A3.052,3.052,0,0,0,454.233,401.58Z" transform="translate(-454.233 -386.704)" fill="none" stroke="#3b3b3b" stroke-miterlimit="10" stroke-width="1"></path><path id="Path_4262" data-name="Path 4262" d="M460.462,417.068a3.1,3.1,0,0,0,4.343,0l-4.343-4.288A3,3,0,0,0,460.462,417.068Z" transform="translate(-456.048 -391.672)" fill="none" stroke="#3b3b3b" stroke-miterlimit="10" stroke-width="1"></path><path id="Path_4263" data-name="Path 4263" d="M475.5,424.435a3.052,3.052,0,0,0,3.071-3.032H472.43A3.051,3.051,0,0,0,475.5,424.435Z" transform="translate(-460.431 -394.682)" fill="none" stroke="#3b3b3b" stroke-miterlimit="10" stroke-width="1"></path><path id="Path_4264" data-name="Path 4264" d="M491.005,417.068a3,3,0,0,0,0-4.288l-4.343,4.288A3.1,3.1,0,0,0,491.005,417.068Z" transform="translate(-465.279 -391.672)" fill="none" stroke="#3b3b3b" stroke-miterlimit="10" stroke-width="1"></path><ellipse id="Ellipse_264" data-name="Ellipse 264" cx="10.264" cy="10.133" rx="10.264" ry="10.133" transform="translate(4.805 4.744)" fill="none" stroke="#3b3b3b" stroke-miterlimit="10" stroke-width="0.652"></ellipse></g><g id="Group_456" data-name="Group 456" transform="translate(18.889 28.6)"><path id="Path_4265" data-name="Path 4265" d="M468.465,445.519a3.052,3.052,0,0,0-3.071-3.032v6.063A3.051,3.051,0,0,0,468.465,445.519Z" transform="translate(-438.326 -430.642)" fill="none" stroke="#3b3b3b" stroke-miterlimit="10" stroke-width="1"></path><path id="Path_4266" data-name="Path 4266" d="M461.114,430.508a3.1,3.1,0,0,0-4.343,0l4.343,4.288A3,3,0,0,0,461.114,430.508Z" transform="translate(-435.389 -426.151)" fill="none" stroke="#3b3b3b" stroke-miterlimit="10" stroke-width="1"></path><path id="Path_4267" data-name="Path 4267" d="M445.611,424.29a3.051,3.051,0,0,0-3.071,3.032h6.142A3.052,3.052,0,0,0,445.611,424.29Z" transform="translate(-430.541 -424.29)" fill="none" stroke="#3b3b3b" stroke-miterlimit="10" stroke-width="1"></path><path id="Path_4268" data-name="Path 4268" d="M430.572,430.508a3,3,0,0,0,0,4.288l4.343-4.288A3.1,3.1,0,0,0,430.572,430.508Z" transform="translate(-426.158 -426.151)" fill="none" stroke="#3b3b3b" stroke-miterlimit="10" stroke-width="1"></path><path id="Path_4269" data-name="Path 4269" d="M424.343,445.518a3.052,3.052,0,0,0,3.071,3.032v-6.063A3.051,3.051,0,0,0,424.343,445.518Z" transform="translate(-424.343 -430.642)" fill="none" stroke="#3b3b3b" stroke-miterlimit="10" stroke-width="1"></path><path id="Path_4270" data-name="Path 4270" d="M430.572,461.006a3.1,3.1,0,0,0,4.343,0l-4.343-4.288A3,3,0,0,0,430.572,461.006Z" transform="translate(-426.158 -435.61)" fill="none" stroke="#3b3b3b" stroke-miterlimit="10" stroke-width="1"></path><path id="Path_4271" data-name="Path 4271" d="M445.611,468.373a3.052,3.052,0,0,0,3.071-3.032H442.54A3.051,3.051,0,0,0,445.611,468.373Z" transform="translate(-430.541 -438.62)" fill="none" stroke="#3b3b3b" stroke-miterlimit="10" stroke-width="1"></path><path id="Path_4272" data-name="Path 4272" d="M461.114,461.006a3,3,0,0,0,0-4.288l-4.343,4.288A3.1,3.1,0,0,0,461.114,461.006Z" transform="translate(-435.389 -435.61)" fill="none" stroke="#3b3b3b" stroke-miterlimit="10" stroke-width="1"></path><ellipse id="Ellipse_265" data-name="Ellipse 265" cx="10.264" cy="10.133" rx="10.264" ry="10.133" transform="translate(4.805 4.743)" fill="none" stroke="#3b3b3b" stroke-miterlimit="10" stroke-width="0.652"></ellipse></g><g id="Group_457" data-name="Group 457" transform="translate(0)"><path id="Path_4273" data-name="Path 4273" d="M439.819,401.581a3.051,3.051,0,0,0-3.071-3.032v6.063A3.051,3.051,0,0,0,439.819,401.581Z" transform="translate(-409.68 -386.704)" fill="none" stroke="#3b3b3b" stroke-miterlimit="10" stroke-width="1"></path><path id="Path_4274" data-name="Path 4274" d="M432.467,386.57a3.1,3.1,0,0,0-4.343,0l4.343,4.288A3,3,0,0,0,432.467,386.57Z" transform="translate(-406.742 -382.213)" fill="none" stroke="#3b3b3b" stroke-miterlimit="10" stroke-width="1"></path><path id="Path_4275" data-name="Path 4275" d="M416.964,380.352a3.051,3.051,0,0,0-3.071,3.032h6.142A3.051,3.051,0,0,0,416.964,380.352Z" transform="translate(-401.894 -380.352)" fill="none" stroke="#3b3b3b" stroke-miterlimit="10" stroke-width="1"></path><path id="Path_4276" data-name="Path 4276" d="M401.925,386.57a3,3,0,0,0,0,4.288l4.343-4.288A3.1,3.1,0,0,0,401.925,386.57Z" transform="translate(-397.511 -382.213)" fill="none" stroke="#3b3b3b" stroke-miterlimit="10" stroke-width="1"></path><path id="Path_4277" data-name="Path 4277" d="M395.7,401.58a3.052,3.052,0,0,0,3.071,3.032v-6.063A3.051,3.051,0,0,0,395.7,401.58Z" transform="translate(-395.696 -386.704)" fill="none" stroke="#3b3b3b" stroke-miterlimit="10" stroke-width="1"></path><path id="Path_4278" data-name="Path 4278" d="M401.925,417.068a3.1,3.1,0,0,0,4.343,0l-4.343-4.288A3,3,0,0,0,401.925,417.068Z" transform="translate(-397.511 -391.672)" fill="none" stroke="#3b3b3b" stroke-miterlimit="10" stroke-width="1"></path><path id="Path_4279" data-name="Path 4279" d="M416.964,424.435a3.051,3.051,0,0,0,3.071-3.032h-6.142A3.052,3.052,0,0,0,416.964,424.435Z" transform="translate(-401.894 -394.682)" fill="none" stroke="#3b3b3b" stroke-miterlimit="10" stroke-width="1"></path><path id="Path_4280" data-name="Path 4280" d="M432.467,417.068a3,3,0,0,0,0-4.288l-4.343,4.288A3.1,3.1,0,0,0,432.467,417.068Z" transform="translate(-406.742 -391.672)" fill="none" stroke="#3b3b3b" stroke-miterlimit="10" stroke-width="1"></path><ellipse id="Ellipse_266" data-name="Ellipse 266" cx="10.264" cy="10.133" rx="10.264" ry="10.133" transform="translate(4.805 4.744)" fill="none" stroke="#3b3b3b" stroke-miterlimit="10" stroke-width="0.652"></ellipse></g><g id="Group_458" data-name="Group 458" transform="translate(38.598 58.189)"><path id="Path_4281" data-name="Path 4281" d="M498.356,490.977a3.052,3.052,0,0,0-3.071-3.032v6.064A3.052,3.052,0,0,0,498.356,490.977Z" transform="translate(-468.217 -476.1)" fill="none" stroke="#3b3b3b" stroke-miterlimit="10" stroke-width="1"></path><path id="Path_4282" data-name="Path 4282" d="M491.005,475.966a3.1,3.1,0,0,0-4.343,0l4.343,4.288A3,3,0,0,0,491.005,475.966Z" transform="translate(-465.279 -471.609)" fill="none" stroke="#3b3b3b" stroke-miterlimit="10" stroke-width="1"></path><path id="Path_4283" data-name="Path 4283" d="M475.5,469.748a3.052,3.052,0,0,0-3.071,3.032h6.143A3.052,3.052,0,0,0,475.5,469.748Z" transform="translate(-460.431 -469.748)" fill="none" stroke="#3b3b3b" stroke-miterlimit="10" stroke-width="1"></path><path id="Path_4284" data-name="Path 4284" d="M460.462,475.966a3,3,0,0,0,0,4.288l4.343-4.288A3.1,3.1,0,0,0,460.462,475.966Z" transform="translate(-456.048 -471.609)" fill="none" stroke="#3b3b3b" stroke-miterlimit="10" stroke-width="1"></path><path id="Path_4285" data-name="Path 4285" d="M454.233,490.977a3.052,3.052,0,0,0,3.071,3.032v-6.064A3.052,3.052,0,0,0,454.233,490.977Z" transform="translate(-454.233 -476.1)" fill="none" stroke="#3b3b3b" stroke-miterlimit="10" stroke-width="1"></path><path id="Path_4286" data-name="Path 4286" d="M460.462,506.465a3.1,3.1,0,0,0,4.343,0l-4.343-4.288A3,3,0,0,0,460.462,506.465Z" transform="translate(-456.048 -481.069)" fill="none" stroke="#3b3b3b" stroke-miterlimit="10" stroke-width="1"></path><path id="Path_4287" data-name="Path 4287" d="M475.5,513.832a3.053,3.053,0,0,0,3.071-3.032H472.43A3.052,3.052,0,0,0,475.5,513.832Z" transform="translate(-460.431 -484.079)" fill="none" stroke="#3b3b3b" stroke-miterlimit="10" stroke-width="1"></path><path id="Path_4288" data-name="Path 4288" d="M491.005,506.465a3,3,0,0,0,0-4.288l-4.343,4.288A3.1,3.1,0,0,0,491.005,506.465Z" transform="translate(-465.279 -481.069)" fill="none" stroke="#3b3b3b" stroke-miterlimit="10" stroke-width="1"></path><ellipse id="Ellipse_267" data-name="Ellipse 267" cx="10.264" cy="10.133" rx="10.264" ry="10.133" transform="translate(4.805 4.744)" fill="none" stroke="#3b3b3b" stroke-miterlimit="10" stroke-width="0.652"></ellipse></g><g id="Group_459" data-name="Group 459" transform="translate(0 58.189)"><path id="Path_4289" data-name="Path 4289" d="M439.819,490.977a3.051,3.051,0,0,0-3.071-3.032v6.064A3.052,3.052,0,0,0,439.819,490.977Z" transform="translate(-409.68 -476.1)" fill="none" stroke="#3b3b3b" stroke-miterlimit="10" stroke-width="1"></path><path id="Path_4290" data-name="Path 4290" d="M432.467,475.966a3.1,3.1,0,0,0-4.343,0l4.343,4.288A3,3,0,0,0,432.467,475.966Z" transform="translate(-406.742 -471.609)" fill="none" stroke="#3b3b3b" stroke-miterlimit="10" stroke-width="1"></path><path id="Path_4291" data-name="Path 4291" d="M416.964,469.748a3.052,3.052,0,0,0-3.071,3.032h6.142A3.052,3.052,0,0,0,416.964,469.748Z" transform="translate(-401.894 -469.748)" fill="none" stroke="#3b3b3b" stroke-miterlimit="10" stroke-width="1"></path><path id="Path_4292" data-name="Path 4292" d="M401.925,475.966a3,3,0,0,0,0,4.288l4.343-4.288A3.1,3.1,0,0,0,401.925,475.966Z" transform="translate(-397.511 -471.609)" fill="none" stroke="#3b3b3b" stroke-miterlimit="10" stroke-width="1"></path><path id="Path_4293" data-name="Path 4293" d="M395.7,490.977a3.052,3.052,0,0,0,3.071,3.032v-6.064A3.052,3.052,0,0,0,395.7,490.977Z" transform="translate(-395.696 -476.1)" fill="none" stroke="#3b3b3b" stroke-miterlimit="10" stroke-width="1"></path><path id="Path_4294" data-name="Path 4294" d="M401.925,506.465a3.1,3.1,0,0,0,4.343,0l-4.343-4.288A3,3,0,0,0,401.925,506.465Z" transform="translate(-397.511 -481.069)" fill="none" stroke="#3b3b3b" stroke-miterlimit="10" stroke-width="1"></path><path id="Path_4295" data-name="Path 4295" d="M416.964,513.832a3.052,3.052,0,0,0,3.071-3.032h-6.142A3.052,3.052,0,0,0,416.964,513.832Z" transform="translate(-401.894 -484.079)" fill="none" stroke="#3b3b3b" stroke-miterlimit="10" stroke-width="1"></path><path id="Path_4296" data-name="Path 4296" d="M432.467,506.465a3,3,0,0,0,0-4.288l-4.343,4.288A3.1,3.1,0,0,0,432.467,506.465Z" transform="translate(-406.742 -481.069)" fill="none" stroke="#3b3b3b" stroke-miterlimit="10" stroke-width="1"></path><ellipse id="Ellipse_268" data-name="Ellipse 268" cx="10.264" cy="10.133" rx="10.264" ry="10.133" transform="translate(4.805 4.744)" fill="none" stroke="#3b3b3b" stroke-miterlimit="10" stroke-width="0.652"></ellipse></g></g></g></svg>