<svg xmlns="http://www.w3.org/2000/svg" width="271.308" height="309.043" viewBox="0 0 271.308 309.043">
  <g id="Group_14" data-name="Group 14" transform="translate(-1115.415 -1181.779)">
    <g id="Group_11" data-name="Group 11" transform="translate(1115.415 1181.779)">
      <g id="Group_1" data-name="Group 1" transform="translate(41.656 256.893)">
        <path id="Path_1" data-name="Path 1" d="M1160.85,1364.482a4.77,4.77,0,0,1-1.24,1.549,11.85,11.85,0,0,1-1.969,1.378,12.172,12.172,0,0,1-2.227.974,6.8,6.8,0,0,1-2.059.366,2.328,2.328,0,0,1-1.5-.438,1.347,1.347,0,0,1-.55-1.1,3.736,3.736,0,0,1,.268-1.366,13.853,13.853,0,0,1,.908-1.78q.384-.658.614-1.147a9.32,9.32,0,0,0,.372-.889,4.492,4.492,0,0,0,.192-.72,4.218,4.218,0,0,0,.05-.658.877.877,0,0,0-.548-.83,5.018,5.018,0,0,0-1.677-.365l-4.3,9.218h-4.426l7.212-15.51a1.248,1.248,0,0,0,.128-.463c0-.343-.348-.513-1.047-.513h-.256c-.528,0-.793-.217-.793-.658a.882.882,0,0,1,.46-.792,4.156,4.156,0,0,1,1.893-.28,13.261,13.261,0,0,1,2.635.219,2.2,2.2,0,0,1,1.432.78,5.126,5.126,0,0,1,1.5-.731,8.583,8.583,0,0,1,2.443-.268,4.2,4.2,0,0,1,2.352.524,1.879,1.879,0,0,1,.768,1.671,4.268,4.268,0,0,1-.524,1.962,7.974,7.974,0,0,1-1.381,1.891,9.462,9.462,0,0,1-1.918,1.512,5.964,5.964,0,0,1-2.136.8,5.116,5.116,0,0,1,1.751.513,1.274,1.274,0,0,1,.679,1.219,3.482,3.482,0,0,1-.282,1.23,15.607,15.607,0,0,1-.845,1.745,14.414,14.414,0,0,0-.792,1.522,2.1,2.1,0,0,0-.18.719c0,.23.162.343.486.343a2.377,2.377,0,0,0,1-.268,7.558,7.558,0,0,0,1.112-.658,7.011,7.011,0,0,0,.985-.842,4.113,4.113,0,0,0,.638-.816Zm-8.874-6.047a8.818,8.818,0,0,0,2.045-.719,7.025,7.025,0,0,0,1.649-1.135,4.938,4.938,0,0,0,1.1-1.5,4.276,4.276,0,0,0,.4-1.841.979.979,0,0,0-1.05-1.1,1.851,1.851,0,0,0-1.01.343,2.54,2.54,0,0,0-.882,1.146Z" transform="translate(-1142.767 -1350.461)" fill="#153084"/>
        <path id="Path_2" data-name="Path 2" d="M1166.135,1361.794a4.8,4.8,0,0,1-.844,1.147,7.621,7.621,0,0,1-1.357,1.1,12.437,12.437,0,0,1-2.915,1.513,10.1,10.1,0,0,1-3.35.512q-1.024,0-1.8-.061a4.3,4.3,0,0,1-1.317-.281,1.791,1.791,0,0,1-.819-.621,1.861,1.861,0,0,1-.28-1.086,7.132,7.132,0,0,1,.792-2.73l.946-2.024a8.772,8.772,0,0,1,1-1.695,4.586,4.586,0,0,1,1.266-1.135,5.3,5.3,0,0,1,1.688-.634,11.534,11.534,0,0,1,2.264-.194,10.232,10.232,0,0,1,1.649.109,3.28,3.28,0,0,1,1.011.305,1.123,1.123,0,0,1,.5.487,1.518,1.518,0,0,1,.14.66,5.876,5.876,0,0,1-.192,1.388,3.879,3.879,0,0,1-.78,1.513,3.025,3.025,0,0,1-1.113.842,7.639,7.639,0,0,1-1.546.524,14.674,14.674,0,0,1-1.7.292q-.858.1-1.573.122c-.206.423-.362.784-.474,1.084a2.245,2.245,0,0,0-.166.744c0,.44.315.659.945.659a9.011,9.011,0,0,0,2.149-.269,10.513,10.513,0,0,0,2.085-.743,9.322,9.322,0,0,0,1.777-1.11,5.083,5.083,0,0,0,1.228-1.365Zm-7.8-1.244a3,3,0,0,0,1.063-.292,2.843,2.843,0,0,0,.856-.634,2.951,2.951,0,0,0,.768-2c0-.211-.163-.317-.486-.317a.9.9,0,0,0-.55.182,2.194,2.194,0,0,0-.525.769Z" transform="translate(-1137.181 -1347.773)" fill="#153084"/>
        <path id="Path_3" data-name="Path 3" d="M1172.979,1356.964q-.743,1.755-1.356,2.975t-1.113,2.036a10.8,10.8,0,0,1-.908,1.305,9.8,9.8,0,0,1-.741.8,8.721,8.721,0,0,1-2.635,1.6,8.308,8.308,0,0,1-2.993.548,2.694,2.694,0,0,1-1.649-.5,1.768,1.768,0,0,1-.678-1.524,7.148,7.148,0,0,1,.818-2.756l2.456-5.267h3.837l-3.35,7.1a2.3,2.3,0,0,0-.256.829c0,.26.135.39.409.39a.61.61,0,0,0,.307-.085,1.582,1.582,0,0,0,.383-.353,5.388,5.388,0,0,0,.538-.806q.305-.534.766-1.437.511-1.025,1.241-2.6t1.675-3.938Z" transform="translate(-1133.281 -1347.941)" fill="#153084"/>
        <path id="Path_4" data-name="Path 4" d="M1180.83,1361.794a4.764,4.764,0,0,1-.844,1.147,7.574,7.574,0,0,1-1.356,1.1,12.421,12.421,0,0,1-2.915,1.513,10.1,10.1,0,0,1-3.352.512q-1.023,0-1.8-.061a4.329,4.329,0,0,1-1.318-.281,1.787,1.787,0,0,1-.817-.621,1.861,1.861,0,0,1-.282-1.086,7.139,7.139,0,0,1,.793-2.73l.945-2.024a8.8,8.8,0,0,1,1-1.695,4.6,4.6,0,0,1,1.268-1.135,5.291,5.291,0,0,1,1.687-.634,11.558,11.558,0,0,1,2.264-.194,10.252,10.252,0,0,1,1.651.109,3.282,3.282,0,0,1,1.009.305,1.12,1.12,0,0,1,.5.487,1.512,1.512,0,0,1,.141.66,5.9,5.9,0,0,1-.192,1.388,3.906,3.906,0,0,1-.78,1.513,3.037,3.037,0,0,1-1.113.842,7.669,7.669,0,0,1-1.547.524,14.647,14.647,0,0,1-1.7.292q-.856.1-1.573.122c-.2.423-.362.784-.472,1.084a2.253,2.253,0,0,0-.167.744c0,.44.314.659.947.659a9.02,9.02,0,0,0,2.149-.269,10.59,10.59,0,0,0,2.085-.743,9.415,9.415,0,0,0,1.777-1.11,5.116,5.116,0,0,0,1.228-1.365Zm-7.8-1.244a2.978,2.978,0,0,0,1.062-.292,2.855,2.855,0,0,0,.857-.634,2.98,2.98,0,0,0,.562-.9,2.924,2.924,0,0,0,.205-1.1c0-.211-.163-.317-.485-.317a.9.9,0,0,0-.551.182,2.181,2.181,0,0,0-.524.769Z" transform="translate(-1129.496 -1347.773)" fill="#153084"/>
        <path id="Path_5" data-name="Path 5" d="M1186.66,1364.482a5.339,5.339,0,0,1-1.2,1.537,9.852,9.852,0,0,1-1.918,1.365,11.568,11.568,0,0,1-2.405.988,9.582,9.582,0,0,1-2.685.378,3.085,3.085,0,0,1-2.085-.67,2.138,2.138,0,0,1-.78-1.695,2.87,2.87,0,0,1,.064-.6,2.712,2.712,0,0,1,.216-.623l5.423-11.608a5.071,5.071,0,0,1,2.124-2.377,7.168,7.168,0,0,1,3.426-.719,3.652,3.652,0,0,1,1.855.388,1.278,1.278,0,0,1,.652,1.173,2.253,2.253,0,0,1-.1.621,8.7,8.7,0,0,1-.408,1.037l-1.509,3.169a9.628,9.628,0,0,1-5.705,5.1l-1.533,3.266a1.122,1.122,0,0,0-.154.512q0,.3.472.453a2.949,2.949,0,0,0,.934.158,3.559,3.559,0,0,0,1.279-.255,7.1,7.1,0,0,0,1.293-.66,7.691,7.691,0,0,0,1.15-.9,4.475,4.475,0,0,0,.806-.987Zm-.1-10.779c.136-.292.226-.5.268-.622a.954.954,0,0,0,.064-.3c0-.163-.127-.244-.384-.244a.7.7,0,0,0-.69.439l-3.2,6.731a2.971,2.971,0,0,0,1.241-.977,8.561,8.561,0,0,0,1.164-1.877Z" transform="translate(-1125.604 -1350.461)" fill="#153084"/>
        <path id="Path_6" data-name="Path 6" d="M1185.392,1368.677l7.212-15.51a1.251,1.251,0,0,0,.128-.463q0-.514-1.048-.513h-.256c-.528,0-.793-.217-.793-.658a.881.881,0,0,1,.46-.792,4.157,4.157,0,0,1,1.893-.28,10.84,10.84,0,0,1,3.108.354,1.371,1.371,0,0,1,1.137,1.354,2.8,2.8,0,0,1-.063.572,2.871,2.871,0,0,1-.242.67l-7.111,15.266Z" transform="translate(-1120.476 -1350.461)" fill="#153084"/>
        <path id="Path_7" data-name="Path 7" d="M1206.384,1361.962a4.527,4.527,0,0,1-1.2,1.489,11.836,11.836,0,0,1-1.982,1.378,12.831,12.831,0,0,1-2.327,1.011,7.3,7.3,0,0,1-2.212.39,2.028,2.028,0,0,1-1.382-.426,1.434,1.434,0,0,1-.486-1.134,3.514,3.514,0,0,1,.32-1.218q.319-.78.768-1.707c.3-.619.609-1.235.933-1.854s.588-1.171.794-1.658a3.2,3.2,0,0,0,.1-.341,1.116,1.116,0,0,0,.024-.219q0-.292-.357-.292a1.094,1.094,0,0,0-.587.158.975.975,0,0,0-.386.452l-3.784,8.169h-4.274l5.065-10.877,2.685,1.342a2.868,2.868,0,0,1,1.561-.719,12.3,12.3,0,0,1,1.791-.134,2.119,2.119,0,0,1,1.5.487,1.744,1.744,0,0,1,.525,1.342,3.562,3.562,0,0,1-.205,1.086,13.713,13.713,0,0,1-.51,1.3c-.206.455-.422.915-.654,1.378s-.43.9-.6,1.306a1.269,1.269,0,0,0-.18.56c0,.244.152.366.459.366a2.493,2.493,0,0,0,1-.269,7.356,7.356,0,0,0,1.152-.657,7.95,7.95,0,0,0,1.023-.843,3.208,3.208,0,0,0,.64-.816Z" transform="translate(-1117.886 -1347.941)" fill="#153084"/>
        <path id="Path_8" data-name="Path 8" d="M1217.67,1364.482a4,4,0,0,1-.857,1.171,10.138,10.138,0,0,1-1.318,1.073,13.3,13.3,0,0,1-3,1.476,10.384,10.384,0,0,1-3.39.548c-.391,0-.856-.013-1.393-.035a6.125,6.125,0,0,1-1.521-.258,3.133,3.133,0,0,1-1.216-.669,1.673,1.673,0,0,1-.5-1.305,6.389,6.389,0,0,1,.5-2.4,8.493,8.493,0,0,1,1.406-2.3,9.456,9.456,0,0,1,2.148-1.866,7.836,7.836,0,0,1,2.7-1.086,2.946,2.946,0,0,1-1.625-1.073,2.756,2.756,0,0,1-.472-1.562,4.792,4.792,0,0,1,.614-2.449,5.542,5.542,0,0,1,1.676-1.794,7.988,7.988,0,0,1,2.455-1.109,11.32,11.32,0,0,1,2.98-.377,15.791,15.791,0,0,1,1.687.073,3.744,3.744,0,0,1,1.1.255,1.243,1.243,0,0,1,.588.487,1.509,1.509,0,0,1,.18.768,2.8,2.8,0,0,1-.026.366,3.609,3.609,0,0,1-.075.391l-4.349,1.512a3.664,3.664,0,0,0,.254-.4c.085-.154.163-.308.231-.463a4.383,4.383,0,0,0,.166-.439,1.243,1.243,0,0,0,.063-.329c0-.244-.272-.367-.818-.367a1.546,1.546,0,0,0-.882.343,3.783,3.783,0,0,0-.871.9,5.784,5.784,0,0,0-.664,1.257,3.878,3.878,0,0,0-.268,1.4,2.406,2.406,0,0,0,.076.6,1.569,1.569,0,0,0,.294.585,2.629,2.629,0,0,0,.614.548,4.549,4.549,0,0,0,1.011.489l-.487,1.023a12.713,12.713,0,0,0-1.52.586,8.554,8.554,0,0,0-1.215.683,7.8,7.8,0,0,0-.986.792q-.448.427-.857.891a6.934,6.934,0,0,0-.678.916,8.563,8.563,0,0,0-.512.95,5.761,5.761,0,0,0-.332.9,3,3,0,0,0-.116.769.982.982,0,0,0,.359.8,1.8,1.8,0,0,0,1.15.294,7.624,7.624,0,0,0,1.957-.282,11.293,11.293,0,0,0,2.046-.756,8.844,8.844,0,0,0,1.764-1.11,4.119,4.119,0,0,0,1.139-1.364Z" transform="translate(-1110.499 -1350.461)" fill="#153084"/>
        <path id="Path_9" data-name="Path 9" d="M1223.256,1364.482a5.321,5.321,0,0,1-1.2,1.537,9.761,9.761,0,0,1-1.918,1.365,11.548,11.548,0,0,1-2.4.988,9.582,9.582,0,0,1-2.685.378,3.088,3.088,0,0,1-2.086-.67,2.138,2.138,0,0,1-.778-1.695,2.772,2.772,0,0,1,.063-.6,2.648,2.648,0,0,1,.217-.623l5.421-11.608a5.072,5.072,0,0,1,2.125-2.377,7.17,7.17,0,0,1,3.427-.719,3.651,3.651,0,0,1,1.854.388,1.278,1.278,0,0,1,.652,1.173,2.266,2.266,0,0,1-.1.621,8.706,8.706,0,0,1-.41,1.037l-1.508,3.169a9.635,9.635,0,0,1-5.705,5.1l-1.534,3.266a1.128,1.128,0,0,0-.154.512q0,.3.473.453a2.951,2.951,0,0,0,.933.158,3.558,3.558,0,0,0,1.28-.255,7.056,7.056,0,0,0,1.292-.66,7.675,7.675,0,0,0,1.151-.9,4.51,4.51,0,0,0,.807-.987Zm-.1-10.779q.206-.438.27-.622a.993.993,0,0,0,.064-.3q0-.244-.384-.244a.708.708,0,0,0-.691.439l-3.2,6.731a2.986,2.986,0,0,0,1.241-.977,8.561,8.561,0,0,0,1.164-1.877Z" transform="translate(-1106.467 -1350.461)" fill="#153084"/>
        <path id="Path_10" data-name="Path 10" d="M1231.264,1361.794a4.761,4.761,0,0,1-.843,1.147,7.583,7.583,0,0,1-1.355,1.1,12.432,12.432,0,0,1-2.917,1.513,10.093,10.093,0,0,1-3.351.512q-1.023,0-1.8-.061a4.306,4.306,0,0,1-1.317-.281,1.788,1.788,0,0,1-.819-.621,1.861,1.861,0,0,1-.28-1.086,7.123,7.123,0,0,1,.792-2.73l.947-2.024a8.771,8.771,0,0,1,1-1.695,4.586,4.586,0,0,1,1.266-1.135,5.3,5.3,0,0,1,1.689-.634,11.541,11.541,0,0,1,2.263-.194,10.271,10.271,0,0,1,1.651.109,3.29,3.29,0,0,1,1.01.305,1.107,1.107,0,0,1,.5.487,1.512,1.512,0,0,1,.142.66,5.812,5.812,0,0,1-.194,1.388,3.875,3.875,0,0,1-.778,1.513,3.035,3.035,0,0,1-1.114.842,7.67,7.67,0,0,1-1.546.524,14.631,14.631,0,0,1-1.7.292c-.571.066-1.1.107-1.574.122-.206.423-.362.784-.474,1.084a2.3,2.3,0,0,0-.166.744c0,.44.315.659.946.659a9.006,9.006,0,0,0,2.149-.269,10.535,10.535,0,0,0,2.085-.743,9.38,9.38,0,0,0,1.778-1.11,5.15,5.15,0,0,0,1.228-1.365Zm-7.8-1.244a2.983,2.983,0,0,0,1.063-.292,2.819,2.819,0,0,0,.856-.634,2.923,2.923,0,0,0,.767-2c0-.211-.161-.317-.485-.317a.9.9,0,0,0-.55.182,2.162,2.162,0,0,0-.524.769Z" transform="translate(-1103.121 -1347.773)" fill="#153084"/>
        <path id="Path_11" data-name="Path 11" d="M1240.714,1361.794a4.577,4.577,0,0,1-.92,1.22,9.2,9.2,0,0,1-1.419,1.146,10.544,10.544,0,0,1-1.575.853,3.572,3.572,0,0,1-1.379.341,1.618,1.618,0,0,1-.794-.195l-1.049,2.316q-1.406,3.073-5.524,3.072-2.892,0-2.891-1.779a2.645,2.645,0,0,1,.307-1.245,3.867,3.867,0,0,1,.832-1.061,5.665,5.665,0,0,1,1.215-.829,6.215,6.215,0,0,1,1.433-.524,2.055,2.055,0,0,1-1.869-2.243,5,5,0,0,1,.142-1.123,5.762,5.762,0,0,1,.5-1.316,13.866,13.866,0,0,1,1.432-2.513,6.689,6.689,0,0,1,1.447-1.463,4.137,4.137,0,0,1,1.508-.682,7.909,7.909,0,0,1,1.677-.17,2.555,2.555,0,0,1,1.2.256,1.487,1.487,0,0,1,.691.719l.229-.561h2.992l-2.89,6.171a2.148,2.148,0,0,0-.307.877q0,.365.461.365a2.347,2.347,0,0,0,.972-.268,8.07,8.07,0,0,0,1.125-.658,7.844,7.844,0,0,0,1.024-.842,3.819,3.819,0,0,0,.664-.816Zm-10.359,3.512c-.427.278-.779.524-1.062.744a2.838,2.838,0,0,0-.7.818,10.056,10.056,0,0,0-.486.9,1.255,1.255,0,0,0-.127.463c0,.211.144.318.434.318a.706.706,0,0,0,.639-.414,10.791,10.791,0,0,0,.59-1.147Q1229.945,1366.307,1230.355,1365.306Zm3.606-7.316a.811.811,0,0,0,.078-.341c0-.227-.154-.342-.461-.342a.946.946,0,0,0-.55.122,1,1,0,0,0-.294.39l-1.944,4.194a1.829,1.829,0,0,0-.2.732c0,.227.1.339.308.339a1.113,1.113,0,0,0,1.023-.73Z" transform="translate(-1099.678 -1347.773)" fill="#153084"/>
        <path id="Path_12" data-name="Path 12" d="M1248.689,1361.794a5.3,5.3,0,0,1-1.253,1.524,11.013,11.013,0,0,1-1.969,1.377,12.4,12.4,0,0,1-2.3.988,7.377,7.377,0,0,1-2.2.378,1.007,1.007,0,0,1-.728-.256,1.2,1.2,0,0,1-.345-.67,4.107,4.107,0,0,1-1.216.684,5.669,5.669,0,0,1-1.854.242,2.82,2.82,0,0,1-1.725-.5,1.766,1.766,0,0,1-.679-1.524,5.41,5.41,0,0,1,.307-1.583,11.867,11.867,0,0,1,.895-2.024,18.036,18.036,0,0,1,1.472-2.4,7.675,7.675,0,0,1,1.4-1.475,4.243,4.243,0,0,1,1.381-.743,4.912,4.912,0,0,1,1.432-.207,2.952,2.952,0,0,1,1.5.28,2.427,2.427,0,0,1,.728.694l.256-.561h3.044l-2.687,5.73q-.281.61-.4.867a1.121,1.121,0,0,0-.114.451q0,.365.434.365a2.543,2.543,0,0,0,1.023-.268,7.537,7.537,0,0,0,1.151-.658,7.8,7.8,0,0,0,1.022-.842,3.16,3.16,0,0,0,.641-.816Zm-6.8-3.829a.266.266,0,0,0,.052-.158v-.158a.353.353,0,0,0-.09-.232.431.431,0,0,0-.345-.11.871.871,0,0,0-.6.2,1.7,1.7,0,0,0-.4.609l-2.328,5a1.782,1.782,0,0,0-.23.828c0,.261.119.391.358.391q.59,0,1.125-1.073Z" transform="translate(-1094.84 -1347.773)" fill="#153084"/>
        <path id="Path_13" data-name="Path 13" d="M1258.062,1361.962a4.578,4.578,0,0,1-1.2,1.489,11.791,11.791,0,0,1-1.981,1.378,12.8,12.8,0,0,1-2.327,1.011,7.3,7.3,0,0,1-2.213.39,2.025,2.025,0,0,1-1.381-.426,1.43,1.43,0,0,1-.487-1.134,3.506,3.506,0,0,1,.32-1.218q.32-.78.766-1.707c.3-.619.611-1.235.936-1.854s.588-1.171.792-1.658a3.161,3.161,0,0,0,.1-.341,1.08,1.08,0,0,0,.024-.219q0-.292-.356-.292a1.106,1.106,0,0,0-.589.158.981.981,0,0,0-.383.452l-3.785,8.169h-4.272l5.064-10.877,2.686,1.342a2.868,2.868,0,0,1,1.561-.719,12.3,12.3,0,0,1,1.792-.134,2.117,2.117,0,0,1,1.5.487,1.747,1.747,0,0,1,.524,1.342,3.528,3.528,0,0,1-.2,1.086q-.205.621-.51,1.3t-.653,1.378q-.345.694-.6,1.306a1.3,1.3,0,0,0-.18.56c0,.244.153.366.461.366a2.5,2.5,0,0,0,1-.269,7.46,7.46,0,0,0,1.151-.657,7.984,7.984,0,0,0,1.023-.843,3.157,3.157,0,0,0,.639-.816Z" transform="translate(-1090.86 -1347.941)" fill="#153084"/>
        <path id="Path_14" data-name="Path 14" d="M1264.479,1361.794a3.589,3.589,0,0,1-.666.964,6.848,6.848,0,0,1-1.074.938,13.494,13.494,0,0,1-3.17,1.744,10.316,10.316,0,0,1-3.684.622q-.972,0-1.752-.073a4.822,4.822,0,0,1-1.331-.292,1.872,1.872,0,0,1-.844-.622,1.764,1.764,0,0,1-.294-1.062,7.139,7.139,0,0,1,.793-2.73l.946-2.024a5.924,5.924,0,0,1,2.405-2.83,7.686,7.686,0,0,1,3.785-.828,8.315,8.315,0,0,1,2.6.292,1.156,1.156,0,0,1,.8,1.194,2.422,2.422,0,0,1-.128.684l-4.348,1.488a3.892,3.892,0,0,0,.5-.8,2.007,2.007,0,0,0,.217-.83c0-.211-.163-.317-.485-.317a.875.875,0,0,0-.845.512l-2.507,5.292a2.024,2.024,0,0,0-.178.8.378.378,0,0,0,.307.415,2.656,2.656,0,0,0,.613.074,10.041,10.041,0,0,0,2.507-.342,10.6,10.6,0,0,0,2.558-1.025,8.715,8.715,0,0,0,1.38-.938,5.041,5.041,0,0,0,1.1-1.255Z" transform="translate(-1085.819 -1347.773)" fill="#153084"/>
        <path id="Path_15" data-name="Path 15" d="M1271.892,1361.794a4.735,4.735,0,0,1-.843,1.147,7.566,7.566,0,0,1-1.355,1.1,12.5,12.5,0,0,1-2.917,1.513,10.1,10.1,0,0,1-3.351.512q-1.023,0-1.8-.061a4.31,4.31,0,0,1-1.317-.281,1.782,1.782,0,0,1-.817-.621,1.85,1.85,0,0,1-.282-1.086,7.137,7.137,0,0,1,.793-2.73l.946-2.024a8.673,8.673,0,0,1,1-1.695,4.579,4.579,0,0,1,1.266-1.135,5.3,5.3,0,0,1,1.689-.634,11.548,11.548,0,0,1,2.263-.194,10.209,10.209,0,0,1,1.649.109,3.283,3.283,0,0,1,1.012.305,1.114,1.114,0,0,1,.5.487,1.511,1.511,0,0,1,.139.66,5.892,5.892,0,0,1-.19,1.388,3.907,3.907,0,0,1-.78,1.513,3.041,3.041,0,0,1-1.113.842,7.7,7.7,0,0,1-1.547.524,14.674,14.674,0,0,1-1.7.292c-.571.066-1.1.107-1.573.122q-.305.635-.474,1.084a2.272,2.272,0,0,0-.166.744c0,.44.315.659.947.659a9,9,0,0,0,2.147-.269,10.528,10.528,0,0,0,2.085-.743,9.322,9.322,0,0,0,1.777-1.11,5.085,5.085,0,0,0,1.228-1.365Zm-7.8-1.244a2.97,2.97,0,0,0,1.061-.292,2.843,2.843,0,0,0,.856-.634,2.93,2.93,0,0,0,.768-2q0-.317-.484-.317a.9.9,0,0,0-.552.182,2.188,2.188,0,0,0-.524.769Z" transform="translate(-1081.876 -1347.773)" fill="#153084"/>
      </g>
      <g id="Group_6" data-name="Group 6" transform="translate(0 123.282)">
        <g id="Group_3" data-name="Group 3" transform="translate(0 107.363)">
          <g id="Group_2" data-name="Group 2">
            <path id="Path_16" data-name="Path 16" d="M1125.188,1339.54H1118.7v-6.165h-3.29v16.015h3.29v-6.818h6.483v6.818h3.29v-16.015h-3.29Z" transform="translate(-1115.415 -1333.147)" fill="#00112b"/>
            <path id="Path_17" data-name="Path 17" d="M1137.195,1333.226a7.541,7.541,0,0,0-5.752,2.187,8.463,8.463,0,0,0-2.038,6.008,8.562,8.562,0,0,0,2.029,6.046,7.5,7.5,0,0,0,5.741,2.2,7.406,7.406,0,0,0,5.69-2.239,9.79,9.79,0,0,0,0-11.977A7.391,7.391,0,0,0,1137.195,1333.226Zm-3.265,4.287a4.047,4.047,0,0,1,3.265-1.258,3.964,3.964,0,0,1,3.221,1.243,7.656,7.656,0,0,1-.006,7.921,4.816,4.816,0,0,1-6.48-.011,5.961,5.961,0,0,1-1.128-3.967A5.9,5.9,0,0,1,1133.93,1337.513Z" transform="translate(-1108.099 -1333.226)" fill="#00112b"/>
            <path id="Path_18" data-name="Path 18" d="M1143.757,1336.395h4.813v13h3.292v-13h4.813v-3.02h-12.917Z" transform="translate(-1100.593 -1333.147)" fill="#00112b"/>
            <path id="Path_19" data-name="Path 19" d="M1156.935,1349.39h10v-3.029h-6.706v-3.811h6.3v-3.01h-6.3v-3.145h6.706v-3.02h-10Z" transform="translate(-1093.702 -1333.147)" fill="#00112b"/>
            <path id="Path_20" data-name="Path 20" d="M1172.195,1333.375h-3.29v16.015h10v-3.048h-6.706Z" transform="translate(-1087.442 -1333.147)" fill="#00112b"/>
            <path id="Path_21" data-name="Path 21" d="M1202.431,1341.7l.234-.946h-3.318l-.142.582a11.206,11.206,0,0,1-.55,1.694,4.12,4.12,0,0,1-.322.621l-2.876-2.638a7.13,7.13,0,0,0,1.675-1.469,3.85,3.85,0,0,0,.871-2.428,3.616,3.616,0,0,0-1.234-2.884,4.7,4.7,0,0,0-3.146-1.01,5.117,5.117,0,0,0-3.32,1,3.567,3.567,0,0,0-1.3,2.909,3.961,3.961,0,0,0,.233,1.346,5.366,5.366,0,0,0,.583,1.172,7.784,7.784,0,0,0,.642.825,7.11,7.11,0,0,0-2.014,1.741,4.543,4.543,0,0,0-.868,2.728,4.349,4.349,0,0,0,1.5,3.483,5.929,5.929,0,0,0,3.961,1.235,9.1,9.1,0,0,0,3.086-.5,8.483,8.483,0,0,0,2.2-1.22l1.66,1.521h4.618l-3.993-3.706A10.967,10.967,0,0,0,1202.431,1341.7Zm-8.024-3.672a4.7,4.7,0,0,1-1.158.91,5.824,5.824,0,0,1-.752-.934,1.713,1.713,0,0,1-.264-.908.818.818,0,0,1,.3-.692,1.535,1.535,0,0,1,1.018-.3,1.314,1.314,0,0,1,.918.285.835.835,0,0,1,.285.676A1.438,1.438,0,0,1,1194.407,1338.032Zm-3.352,6.042a2.187,2.187,0,0,1,.53-.7,6.843,6.843,0,0,1,1.018-.727l3.468,3.208a5.32,5.32,0,0,1-2.986.812,2.474,2.474,0,0,1-1.657-.5,1.516,1.516,0,0,1-.533-1.254A2.007,2.007,0,0,1,1191.055,1344.074Z" transform="translate(-1077.676 -1333.226)" fill="#00112b"/>
            <path id="Path_22" data-name="Path 22" d="M1221.569,1338.23a4.358,4.358,0,0,0-1.636-3.678,7.428,7.428,0,0,0-4.594-1.177h-4.93v16.015h3.29v-6.026h1.982l3.681,6.026h3.9l-4.382-6.911A4.466,4.466,0,0,0,1221.569,1338.23Zm-7.87-1.854h1.536a4.206,4.206,0,0,1,2.411.493c.142.1.57.407.57,1.452a1.852,1.852,0,0,1-.592,1.535,3.708,3.708,0,0,1-2.264.539H1213.7Z" transform="translate(-1065.738 -1333.148)" fill="#00112b"/>
            <path id="Path_23" data-name="Path 23" d="M1223.244,1349.39h10v-3.029h-6.708v-3.811h6.3v-3.01h-6.3v-3.145h6.708v-3.02h-10Z" transform="translate(-1059.025 -1333.147)" fill="#00112b"/>
            <path id="Path_24" data-name="Path 24" d="M1240.95,1339.961a12.07,12.07,0,0,1-1.982-.825,2,2,0,0,1-.714-.622,1.623,1.623,0,0,1-.18-.836,1.112,1.112,0,0,1,.477-.982,2.983,2.983,0,0,1,1.747-.428,9.081,9.081,0,0,1,3.375.7l.722.29,1.084-2.885-.678-.283a11.584,11.584,0,0,0-4.462-.85,6.45,6.45,0,0,0-3.952,1.144,3.908,3.908,0,0,0-1.624,3.275,4.422,4.422,0,0,0,1.112,3.1,7.9,7.9,0,0,0,3.346,1.922,14.605,14.605,0,0,1,2.139.868,2.246,2.246,0,0,1,.791.636,1.49,1.49,0,0,1,.193.816,1.323,1.323,0,0,1-.577,1.162,3.893,3.893,0,0,1-2.219.5,10.642,10.642,0,0,1-2.035-.2,10.789,10.789,0,0,1-1.9-.554l-1.046-.419v3.241l.445.2a10.888,10.888,0,0,0,4.475.734,7.3,7.3,0,0,0,4.4-1.22,4.23,4.23,0,0,0,1.764-3.6,4.091,4.091,0,0,0-1.112-2.948A9.088,9.088,0,0,0,1240.95,1339.961Z" transform="translate(-1053.105 -1333.219)" fill="#00112b"/>
            <path id="Path_25" data-name="Path 25" d="M1254.352,1333.226a7.545,7.545,0,0,0-5.753,2.187,8.463,8.463,0,0,0-2.038,6.008,8.567,8.567,0,0,0,2.029,6.046,7.5,7.5,0,0,0,5.741,2.2,7.405,7.405,0,0,0,5.69-2.237,9.79,9.79,0,0,0,0-11.978A7.387,7.387,0,0,0,1254.352,1333.226Zm-3.266,4.287a4.054,4.054,0,0,1,3.266-1.258,3.96,3.96,0,0,1,3.22,1.243,6.01,6.01,0,0,1,1.1,3.942,6.071,6.071,0,0,1-1.107,3.979,3.976,3.976,0,0,1-3.236,1.247,4.022,4.022,0,0,1-3.245-1.258,5.977,5.977,0,0,1-1.128-3.967A5.913,5.913,0,0,1,1251.087,1337.513Z" transform="translate(-1046.832 -1333.226)" fill="#00112b"/>
            <path id="Path_26" data-name="Path 26" d="M1273.326,1338.23a4.361,4.361,0,0,0-1.635-3.678,7.443,7.443,0,0,0-4.6-1.177h-4.931v16.015h3.29v-6.026h1.985l3.678,6.026h3.9l-4.381-6.911A4.471,4.471,0,0,0,1273.326,1338.23Zm-7.872-1.854h1.537a4.218,4.218,0,0,1,2.414.493c.139.1.568.407.568,1.452a1.849,1.849,0,0,1-.593,1.535,3.7,3.7,0,0,1-2.262.539h-1.664Z" transform="translate(-1038.673 -1333.148)" fill="#00112b"/>
            <path id="Path_27" data-name="Path 27" d="M1273.751,1336.395h4.814v13h3.29v-13h4.814v-3.02h-12.918Z" transform="translate(-1032.613 -1333.147)" fill="#00112b"/>
            <path id="Path_28" data-name="Path 28" d="M1296.256,1341.9a9.083,9.083,0,0,0-3.593-1.935,11.986,11.986,0,0,1-1.979-.825,1.968,1.968,0,0,1-.714-.62,1.638,1.638,0,0,1-.18-.837,1.111,1.111,0,0,1,.475-.982,2.982,2.982,0,0,1,1.747-.428,9.093,9.093,0,0,1,3.376.7l.724.29,1.082-2.885-.678-.283a11.578,11.578,0,0,0-4.461-.85,6.449,6.449,0,0,0-3.953,1.144,3.908,3.908,0,0,0-1.624,3.275,4.428,4.428,0,0,0,1.11,3.1,7.925,7.925,0,0,0,3.348,1.922,14.885,14.885,0,0,1,2.141.868,2.135,2.135,0,0,1,.789.64,1.467,1.467,0,0,1,.192.813,1.3,1.3,0,0,1-.575,1.161,3.889,3.889,0,0,1-2.22.5,10.61,10.61,0,0,1-2.033-.2,10.941,10.941,0,0,1-1.9-.554l-1.045-.419v3.241l.445.2a10.892,10.892,0,0,0,4.474.734,7.3,7.3,0,0,0,4.4-1.219,4.234,4.234,0,0,0,1.767-3.6A4.1,4.1,0,0,0,1296.256,1341.9Z" transform="translate(-1026.061 -1333.219)" fill="#00112b"/>
          </g>
        </g>
        <g id="Group_5" data-name="Group 5" transform="translate(8.544)">
          <g id="Group_4" data-name="Group 4">
            <path id="Path_29" data-name="Path 29" d="M1161.484,1262.729h6.944l30.138,79.032q1.528,4.009,3.536,5.284t6.467,1.276v4.86q-8.158-.366-11.882-.486t-5.958-.122q-2.741,0-7.072.122t-12.361.486v-4.86q4.841-.122,6.913-1.246a3.814,3.814,0,0,0,2.071-3.614,12.228,12.228,0,0,0-.1-1.579,6.462,6.462,0,0,0-.286-1.276l-6.945-19.622h-27.78l-5.352,14.4c-.085.242-.192.547-.318.911q-1.912,5.163-1.911,7.168a3.959,3.959,0,0,0,1.5,3.554q1.5,1,6.084,1.306v4.86q-3.441-.243-6.594-.364t-5.766-.122q-2.232,0-5.257.122t-6.53.364v-4.86q4.334,0,6.308-1.276t3.631-5.709Zm-2.23,20.046L1146.766,1316h24.276Z" transform="translate(-1121.025 -1262.729)" fill="#153084"/>
            <path id="Path_30" data-name="Path 30" d="M1221.3,1287.541l1.021-3.768h3.949q-.064,1.4-.254,4.374t-.192,4.374q0,2.613.256,8.2v.364h-3.886q-.957-6.983-5.226-10.722t-11.341-3.735a14.178,14.178,0,0,0-8.824,2.551,8.013,8.013,0,0,0-3.344,6.682q0,6.379,15.546,10.813,1.4.425,2.038.608,10.515,3.1,14.688,7.107a13.988,13.988,0,0,1,4.173,10.57,16.752,16.752,0,0,1-6.658,13.973q-6.659,5.163-18.126,5.163a35.277,35.277,0,0,1-9.748-1.277,29.251,29.251,0,0,1-8.41-3.947l-1.021,3.766h-3.822q.064-.609.063-1.823.19-7.472.19-10.63v-8.2h4.079q.573,8.808,5.129,13.242t13.157,4.435q5.988,0,9.43-2.581a8.312,8.312,0,0,0,3.44-7.017,7.929,7.929,0,0,0-2.677-6.289q-2.674-2.336-11.021-4.768-14.4-4.25-18.477-8.079t-4.078-10.449a16.238,16.238,0,0,1,6.18-13.273q6.179-5.011,16.375-5.012a32.354,32.354,0,0,1,9.494,1.307A25.373,25.373,0,0,1,1221.3,1287.541Z" transform="translate(-1089.477 -1252.55)" fill="#153084"/>
            <path id="Path_31" data-name="Path 31" d="M1243.509,1291.085v48.3q0,5.891,1.723,7.045t8.346,1.4v4.252q-7.839-.365-11.82-.486t-6.466-.122q-2.613,0-6.754.122t-12.042.486v-4.252q8.856-.425,10.641-1.612t1.783-6.831V1304.57q-.062-7.107-12.3-7.228h-.128v-4.312q6.561-.243,13.317-.7T1243.509,1291.085Zm-8.089-26.242a8.043,8.043,0,0,1,5.637,2,6.6,6.6,0,0,1,2.2,5.1,7.94,7.94,0,0,1-2.611,5.953,8.734,8.734,0,0,1-6.245,2.49,7.7,7.7,0,0,1-5.543-2.065,6.768,6.768,0,0,1-2.165-5.1,7.827,7.827,0,0,1,2.675-5.862A8.6,8.6,0,0,1,1235.42,1264.843Z" transform="translate(-1071.1 -1261.624)" fill="#153084"/>
            <path id="Path_32" data-name="Path 32" d="M1283.239,1334.134A26.381,26.381,0,0,1,1261,1344.158q-7.456,0-11.818-3.766a12.855,12.855,0,0,1-4.366-10.266q0-7.228,5.226-11.176t22.937-7.474q1.721-.363,4.269-.789,5.544-.97,5.544-3.1v-6.683q0-8.383-2.612-11.481t-8.984-3.1a18.052,18.052,0,0,0-5.671.88,17.479,17.479,0,0,0-4.969,2.582q.317,2,.446,3.4t.127,2.612a8.49,8.49,0,0,1-2.007,5.772,6.362,6.362,0,0,1-5,2.308,6.059,6.059,0,0,1-4.459-1.641,5.949,5.949,0,0,1-1.656-4.434q0-6.256,7.644-11t18.414-4.739q11.851,0,17.427,4.892t5.574,15.4v.364l-.127,22.052v2.733q0,5.772,1.115,7.351t3.984,1.58a6.056,6.056,0,0,0,3.12-.822,8.628,8.628,0,0,0,2.613-2.52l2.739,1.762a18.762,18.762,0,0,1-6.657,6.895,17.112,17.112,0,0,1-8.888,2.4q-5.544,0-8.315-2.369T1283.239,1334.134Zm-.446-20.532q-14.4,2.613-19.051,5.62a9.7,9.7,0,0,0-4.651,8.656,10.247,10.247,0,0,0,2.516,7.228,8.54,8.54,0,0,0,6.6,2.734,14.157,14.157,0,0,0,7.549-2.369,24.712,24.712,0,0,0,6.913-6.742Z" transform="translate(-1056.288 -1252.612)" fill="#153084"/>
          </g>
        </g>
      </g>
      <g id="Group_10" data-name="Group 10" transform="translate(93.558)">
        <g id="Group_9" data-name="Group 9">
          <g id="Group_7" data-name="Group 7" transform="translate(0 20.885)">
            <path id="Path_33" data-name="Path 33" d="M1176.9,1204.977s24-12.077,25.851-8.975l-6.582,18.385S1175.7,1205.568,1176.9,1204.977Z" transform="translate(-1176.847 -1195.492)" fill="#153084"/>
          </g>
          <g id="Group_8" data-name="Group 8" transform="translate(15.984)">
            <path id="Path_34" data-name="Path 34" d="M1219.669,1181.779s-35.277,34.146-32.128,73.338c0,0,33.911-34.679,49.9-40.466,0,0-21.013,15.458-23.983,22.9l29.259,17.563s-.745-14.83-5.037-25.55l17.867-25.179s-17.986-6.327-55.049,22.776c0,0,12.173-18.871,26.89-24.077C1227.39,1203.088,1222.483,1183.685,1219.669,1181.779Z" transform="translate(-1187.342 -1181.779)" fill="#153084"/>
          </g>
        </g>
      </g>
      <path id="Path_35" data-name="Path 35" d="M1130.073,1257.284c.6.144,1.193.308,1.792.468.973.262,1.958.474,2.945.681,1.625.336,3.258.635,4.895.914q3.523.6,7.068,1.08,4.494.615,9.019,1c3.526.288,7.063.458,10.6.468q5.958.023,11.9-.534c4.375-.414,8.724-1.059,13.031-1.888,4.708-.908,9.368-2.022,13.99-3.253,4.9-1.31,9.767-2.743,14.622-4.2,6.192-1.861,12.264-4.14,18.415-6.128,6.07-1.961,12.167-3.842,18.314-5.584,6-1.7,12.036-3.255,18.123-4.641q8.842-2.014,17.811-3.486c5.734-.927,11.508-1.671,17.3-2.162a159.741,159.741,0,0,1,16.452-.592,105.578,105.578,0,0,1,15.193,1.327,78.638,78.638,0,0,1,13.644,3.49,80.323,80.323,0,0,1,12.132,5.543c3.823,2.121,9.245,5.583,8,4.928-2.062-1.082-4.188-2.041-6.34-2.947q-4.718-1.974-9.619-3.521a104.646,104.646,0,0,0-30.08-4.926,130.971,130.971,0,0,0-21.147,1.419,209.2,209.2,0,0,0-25.643,5.493c-10.063,2.761-19.963,6.043-29.763,9.557-10.924,3.9-21.736,8.1-32.525,12.343-4.218,1.658-8.378,3.407-12.722,4.743-4.884,1.5-9.738,2.857-14.749,3.917a150.3,150.3,0,0,1-20.817,3.059,111.066,111.066,0,0,1-23.833-.629,77.425,77.425,0,0,1-23.687-7.171c-2.868-1.419-4.13-3.246-3.2-6.379a3.755,3.755,0,0,1,2.815-2.632A12.113,12.113,0,0,1,1130.073,1257.284Z" transform="translate(-1112.547 -1156.876)" fill="#153084"/>
    </g>
    <g id="Group_13" data-name="Group 13" transform="translate(1202.486 1470.538)">
      <g id="Group_12" data-name="Group 12" transform="translate(0 0)">
        <path id="Path_36" data-name="Path 36" d="M1183.773,1371.385l3.456,6.677,7.729,1.071-5.592,5.2,1.32,7.339-6.912-3.465-6.913,3.465,1.32-7.339-5.592-5.2,7.729-1.071Z" transform="translate(-1172.587 -1371.385)" fill="#153084"/>
        <path id="Path_37" data-name="Path 37" d="M1208.176,1371.385l3.456,6.677,7.729,1.071-5.593,5.2,1.321,7.339-6.913-3.465-6.913,3.465,1.32-7.339-5.592-5.2,7.729-1.071Z" transform="translate(-1159.827 -1371.385)" fill="#153084"/>
        <path id="Path_38" data-name="Path 38" d="M1232.579,1371.385l3.456,6.677,7.729,1.071-5.593,5.2,1.32,7.339-6.912-3.465-6.914,3.465,1.321-7.339-5.593-5.2,7.729-1.071Z" transform="translate(-1147.065 -1371.385)" fill="#153084"/>
      </g>
    </g>
  </g>
</svg>
